<svg width="16" height="16" viewBox="0 0 16 16" fill="none" xmlns="http://www.w3.org/2000/svg">
<g clip-path="url(#clip0_72_2451)">
<path d="M12.0672 4.0678C12.0672 1.82481 10.2424 0 7.99944 0C5.75645 0 3.93164 1.82481 3.93164 4.0678C3.93164 6.21939 5.61164 7.98129 7.72825 8.12176V15.7288C7.72825 15.8007 7.75682 15.8697 7.80768 15.9206C7.85854 15.9714 7.92751 16 7.99944 16C8.07136 16 8.14034 15.9714 8.1912 15.9206C8.24205 15.8697 8.27062 15.8007 8.27062 15.7288V8.12176C10.3872 7.98129 12.0672 6.21939 12.0672 4.0678ZM6.64351 4.0678C6.04527 4.0678 5.55876 3.58129 5.55876 2.98305C5.55876 2.38481 6.04527 1.89831 6.64351 1.89831C7.24174 1.89831 7.72825 2.38481 7.72825 2.98305C7.72825 3.58129 7.24174 4.0678 6.64351 4.0678Z" fill="#9A7A5F"/>
</g>
<defs>
<clipPath id="clip0_72_2451">
<rect width="16" height="16" fill="white"/>
</clipPath>
</defs>
</svg>
