<svg width="16" height="16" viewBox="0 0 16 16" fill="none" xmlns="http://www.w3.org/2000/svg">
<path d="M12.2315 10.472L10.9057 9.14628C10.4322 8.6728 9.62729 8.86221 9.4379 9.47772C9.29586 9.90387 8.82237 10.1406 8.39624 10.0459C7.44927 9.80916 6.17087 8.5781 5.93413 7.58379C5.79208 7.15764 6.07617 6.68415 6.50231 6.54213C7.11784 6.35273 7.30723 5.54781 6.83375 5.07433L5.50799 3.74858C5.12921 3.41714 4.56103 3.41714 4.22959 3.74858L3.32997 4.6482C2.43036 5.59516 3.42467 8.10462 5.65004 10.33C7.87541 12.5554 10.3849 13.597 11.3318 12.6501L12.2315 11.7504C12.5629 11.3717 12.5629 10.8035 12.2315 10.472Z" fill="#9A7A5F"/>
</svg>
