<svg width="16" height="16" viewBox="0 0 16 16" fill="none" xmlns="http://www.w3.org/2000/svg">
<path d="M8 13.5C10.7607 13.5 13 11.2607 13 8.5C13 5.73928 10.7607 3.5 8 3.5C5.23928 3.5 3 5.73928 3 8.5C3 11.2607 5.23928 13.5 8 13.5ZM7.64285 5.64286C7.64285 5.44643 7.80356 5.28571 8 5.28571C8.19644 5.28571 8.35715 5.44643 8.35715 5.64286V8.32858L10.0089 9.65C10.1625 9.77322 10.1875 9.99821 10.0643 10.1518C10.0309 10.1937 9.98857 10.2274 9.94033 10.2506C9.89209 10.2738 9.83923 10.2858 9.78571 10.2857C9.70713 10.2857 9.62856 10.2607 9.56251 10.2071L7.7768 8.77858C7.69287 8.71071 7.64288 8.60894 7.64288 8.5V5.64286H7.64285Z" fill="#9A7A5F"/>
</svg>
