<svg width="22" height="22" viewBox="0 0 22 22" fill="none" xmlns="http://www.w3.org/2000/svg">
<path d="M5.12462 16.8743C5.16442 16.9142 5.21168 16.9458 5.26371 16.9673C5.31573 16.9889 5.3715 17 5.42782 17C5.48414 17 5.5399 16.9889 5.59193 16.9673C5.64395 16.9458 5.69122 16.9142 5.73102 16.8743L10.9979 11.6074L16.2669 16.8743C16.3474 16.9547 16.4564 16.9999 16.5701 16.9999C16.6839 16.9999 16.7929 16.9547 16.8733 16.8743C16.9538 16.7939 16.9989 16.6848 16.9989 16.5711C16.9989 16.4574 16.9538 16.3483 16.8733 16.2679L11.6043 11.001L16.8712 5.73199C16.9516 5.65158 16.9968 5.54251 16.9968 5.42879C16.9968 5.31507 16.9516 5.206 16.8712 5.12559C16.7908 5.04518 16.6817 5 16.568 5C16.4543 5 16.3452 5.04518 16.2648 5.12559L10.9979 10.3946L5.72888 5.12773C5.64689 5.05752 5.54144 5.02084 5.43358 5.025C5.32573 5.02917 5.22341 5.07388 5.14709 5.1502C5.07077 5.22653 5.02606 5.32884 5.02189 5.43669C5.01772 5.54455 5.05441 5.65001 5.12462 5.73199L10.3915 11.001L5.12462 16.2701C5.0448 16.3503 5 16.459 5 16.5722C5 16.6854 5.0448 16.794 5.12462 16.8743Z" fill="#4E4439"/>
</svg>
