<svg width="21" height="21" viewBox="0 0 21 21" fill="none" xmlns="http://www.w3.org/2000/svg">
<path d="M1.15334 19.846C1.21666 19.9094 1.29185 19.9597 1.37462 19.994C1.45738 20.0283 1.5461 20.046 1.6357 20.046C1.7253 20.046 1.81402 20.0283 1.89678 19.994C1.97955 19.9597 2.05474 19.9094 2.11806 19.846L10.4972 11.4669L18.8798 19.846C19.0077 19.974 19.1812 20.0458 19.3621 20.0458C19.543 20.0458 19.7166 19.974 19.8445 19.846C19.9724 19.7181 20.0443 19.5446 20.0443 19.3637C20.0443 19.1827 19.9724 19.0092 19.8445 18.8813L11.4619 10.5022L19.8411 2.11961C19.969 1.99168 20.0409 1.81816 20.0409 1.63724C20.0409 1.45632 19.969 1.28281 19.8411 1.15488C19.7131 1.02695 19.5396 0.955078 19.3587 0.955078C19.1778 0.955078 19.0043 1.02695 18.8764 1.15488L10.4972 9.53743L2.11465 1.15829C1.98423 1.04659 1.81646 0.988229 1.64487 0.994857C1.47328 1.00148 1.31051 1.07262 1.18909 1.19404C1.06766 1.31546 0.996532 1.47823 0.989905 1.64982C0.983277 1.82141 1.04164 1.98918 1.15334 2.11961L9.53248 10.5022L1.15334 18.8847C1.02635 19.0125 0.955078 19.1853 0.955078 19.3654C0.955078 19.5455 1.02635 19.7183 1.15334 19.846Z" fill="white"/>
</svg>
