<svg width="15" height="15" viewBox="0 0 15 15" fill="none" xmlns="http://www.w3.org/2000/svg">
<g clip-path="url(#clip0_72_12235)">
<path d="M14.0625 10.125C13.821 10.125 13.625 10.321 13.625 10.5625V13.625H1.37501V10.5625C1.37501 10.321 1.179 10.125 0.937525 10.125C0.696052 10.125 0.5 10.321 0.5 10.5625V14.0625C0.5 14.304 0.696015 14.5 0.937489 14.5H14.0625C14.304 14.5 14.5 14.3039 14.5 14.0625V10.5625C14.5 10.321 14.304 10.125 14.0625 10.125Z" fill="#1D120C"/>
<path d="M7.18053 10.8718C7.35072 11.0402 7.63555 11.042 7.8057 10.8718L10.8678 7.85305C10.9088 7.81264 10.9413 7.76449 10.9635 7.71139C10.9858 7.65828 10.9972 7.60129 10.9972 7.54373C10.9972 7.48617 10.9858 7.42918 10.9635 7.37608C10.9413 7.32298 10.9088 7.27482 10.8678 7.23442C10.6954 7.06335 10.4154 7.06335 10.243 7.23442L7.9352 9.50943V0.937489C7.9352 0.695979 7.73744 0.5 7.49332 0.5C7.24919 0.5 7.05143 0.696015 7.05143 0.937489V9.50943L4.74361 7.23442C4.5708 7.06335 4.29125 7.06335 4.11887 7.23442C4.07782 7.2748 4.04522 7.32294 4.02297 7.37604C4.00072 7.42915 3.98926 7.48615 3.98926 7.54373C3.98926 7.60131 4.00072 7.65831 4.02297 7.71142C4.04522 7.76452 4.07782 7.81267 4.11887 7.85305L7.18053 10.8718Z" fill="#1D120C"/>
</g>
<defs>
<clipPath id="clip0_72_12235">
<rect width="14" height="14" fill="white" transform="translate(0.5 0.5)"/>
</clipPath>
</defs>
</svg>
