<svg width="16" height="16" viewBox="0 0 16 16" fill="none" xmlns="http://www.w3.org/2000/svg">
<path d="M12.8943 4.60284L9.25495 8.21875L12.8943 11.8347C12.9601 11.6972 13 11.5451 13 11.3828V5.05469C13 4.89234 12.9601 4.74034 12.8943 4.60284ZM11.9453 4H2.05469C1.89234 4 1.74034 4.03991 1.60284 4.1057L6.25431 8.73374C6.66559 9.14502 7.33441 9.14502 7.74569 8.73374L12.3972 4.1057C12.2597 4.03991 12.1077 4 11.9453 4ZM1.1057 4.60284C1.03991 4.74034 1 4.89234 1 5.05469V11.3828C1 11.5452 1.03991 11.6972 1.1057 11.8347L4.74505 8.21875L1.1057 4.60284Z" fill="white"/>
<path d="M8.75752 8.71582L8.24252 9.23081C7.55723 9.9161 6.44215 9.9161 5.75686 9.23081L5.24189 8.71582L1.60254 12.3317C1.74005 12.3975 1.89204 12.4374 2.05439 12.4374H11.945C12.1074 12.4374 12.2594 12.3975 12.3969 12.3317L8.75752 8.71582Z" fill="white"/>
</svg>
