<svg width="15" height="15" viewBox="0 0 15 15" fill="none" xmlns="http://www.w3.org/2000/svg">
<path d="M3.38777 11.6101L3.38802 11.6103C3.42909 11.6514 3.47786 11.6841 3.53154 11.7063C3.58522 11.7286 3.64276 11.74 3.70087 11.74C3.75899 11.74 3.81653 11.7286 3.87021 11.7063C3.92389 11.6841 3.97266 11.6514 4.01373 11.6103L7.49869 8.12537L10.9851 11.6104C10.9851 11.6104 10.9851 11.6104 10.9851 11.6104C11.0681 11.6934 11.1806 11.74 11.2979 11.74C11.4152 11.74 11.5278 11.6933 11.6107 11.6104C11.6937 11.5274 11.7403 11.4149 11.7403 11.2976C11.7403 11.1803 11.6937 11.0678 11.6107 10.9848L11.6107 10.9848L8.12425 7.49977L11.6092 4.01335C11.6093 4.01335 11.6093 4.01334 11.6093 4.01333C11.6922 3.93038 11.7388 3.81787 11.7388 3.70056C11.7388 3.58324 11.6922 3.47072 11.6092 3.38777C11.5263 3.30481 11.4138 3.2582 11.2965 3.2582C11.1791 3.2582 11.0666 3.30481 10.9837 3.38777L10.9836 3.38779L7.49862 6.87422L4.01219 3.38921L4.0125 3.38889L4.00371 3.38136C3.91912 3.30892 3.8103 3.27106 3.69901 3.27536C3.58772 3.27966 3.48216 3.3258 3.4034 3.40455L3.50947 3.51061L3.4034 3.40455C3.32465 3.4833 3.27852 3.58887 3.27422 3.70016C3.26992 3.81145 3.30777 3.92026 3.38022 4.00485L3.37988 4.00515L3.38806 4.01333L6.87312 7.49981L3.38806 10.9863L3.38777 10.9866C3.30541 11.0694 3.25918 11.1815 3.25918 11.2983C3.25918 11.4151 3.30541 11.5272 3.38777 11.6101Z" fill="#9A7A5F" stroke="#9A7A5F" stroke-width="0.3"/>
</svg>
