<svg width="25" height="26" viewBox="0 0 25 26" fill="none" xmlns="http://www.w3.org/2000/svg">
<path d="M20.7909 5.29268C20.7496 5.20515 20.6843 5.13115 20.6025 5.07933C20.5208 5.02751 20.426 4.99999 20.3292 5H4.51031C4.41354 5.00003 4.31878 5.02756 4.23706 5.07938C4.15534 5.13121 4.09004 5.20519 4.04877 5.29272C4.00749 5.38024 3.99194 5.47769 4.00394 5.57371C4.01593 5.66973 4.05497 5.76036 4.1165 5.83504L10.1975 13.2106V20.0115C10.1975 20.0984 10.2197 20.1838 10.2619 20.2596C10.3041 20.3355 10.365 20.3994 10.4388 20.4452C10.5126 20.491 10.5969 20.5172 10.6836 20.5213C10.7703 20.5254 10.8567 20.5074 10.9345 20.4688L14.3512 18.7754C14.4363 18.7332 14.5079 18.6681 14.558 18.5875C14.6081 18.5068 14.6348 18.4137 14.6349 18.3188L14.6415 13.2108L20.7229 5.83497C20.7845 5.76034 20.8236 5.66972 20.8356 5.5737C20.8477 5.47768 20.8322 5.38022 20.7909 5.29268ZM13.7377 12.7026C13.6625 12.7938 13.6213 12.9083 13.6211 13.0266L13.6146 18.0012L11.2183 19.1889V13.0273C11.2184 12.9088 11.1772 12.794 11.1018 12.7026L5.59258 6.02068H19.2469L13.7377 12.7026Z" fill="#4E4439"/>
</svg>
