<svg width="32" height="23" viewBox="0 0 32 23" fill="none" xmlns="http://www.w3.org/2000/svg">
<path d="M21.5485 0.345865C21.4433 0.236347 21.3178 0.149355 21.1793 0.0899702C21.0409 0.0305859 20.8922 0 20.7421 0C20.592 0 20.4433 0.0305859 20.3049 0.0899702C20.1664 0.149355 20.0409 0.236347 19.9357 0.345865C19.7263 0.563477 19.6089 0.856525 19.6089 1.16181C19.6089 1.46709 19.7263 1.76013 19.9357 1.97775L28.1131 10.3366H1.12901C0.980474 10.3359 0.833278 10.3653 0.695932 10.4231C0.558586 10.481 0.433813 10.566 0.328829 10.6734C0.223844 10.7809 0.14073 10.9085 0.0842917 11.0489C0.0278529 11.1894 -0.000790733 11.3399 1.66028e-05 11.4917C1.66028e-05 12.1347 0.499985 12.6624 1.12901 12.6624H28.1131L19.9357 21.0056C19.4998 21.4668 19.4998 22.2095 19.9357 22.6541C20.0409 22.7637 20.1664 22.8506 20.3049 22.91C20.4433 22.9694 20.592 23 20.7421 23C20.8922 23 21.0409 22.9694 21.1793 22.91C21.3178 22.8506 21.4433 22.7637 21.5485 22.6541L31.6616 12.3165C31.7687 12.2106 31.8538 12.0838 31.9119 11.9436C31.97 11.8035 32 11.6528 32 11.5005C32 11.3483 31.97 11.1976 31.9119 11.0574C31.8538 10.9172 31.7687 10.7904 31.6616 10.6846L21.5485 0.345865Z" fill="#998675" fill-opacity="0.28"/>
</svg>
