<svg width="40" height="40" viewBox="0 0 40 40" fill="none" xmlns="http://www.w3.org/2000/svg">
<path fill-rule="evenodd" clip-rule="evenodd" d="M22.0238 3.82939C21.9298 3.77686 21.8238 3.74951 21.7161 3.75001C21.6084 3.7505 21.5026 3.77881 21.4091 3.8322L3.5966 13.9885C3.50135 14.0428 3.42207 14.1212 3.36672 14.2159C3.31137 14.3105 3.28189 14.4181 3.28126 14.5277C3.28063 14.6374 3.30885 14.7453 3.36311 14.8406C3.41736 14.9359 3.49573 15.0152 3.59035 15.0706L18.2778 23.6644C18.3747 23.7211 18.4851 23.7508 18.5974 23.7501C18.7097 23.7494 18.8198 23.7185 18.916 23.6606L36.5722 13.0356C36.6661 12.9792 36.7435 12.8991 36.7966 12.8034C36.8498 12.7076 36.8768 12.5996 36.8751 12.4901C36.8734 12.3806 36.8429 12.2734 36.7867 12.1794C36.7305 12.0854 36.6506 12.0078 36.555 11.9544L22.0238 3.82939ZM5.15566 14.5381L21.7219 5.09283L35.005 12.5197L18.5894 22.3981L5.15566 14.5381Z" fill="#8E8173"/>
<path d="M36.5723 17.4107C36.7143 17.3252 36.8166 17.1869 36.8566 17.026C36.8967 16.8651 36.8711 16.6949 36.7857 16.5529C36.7434 16.4825 36.6876 16.4212 36.6216 16.3724C36.5556 16.3236 36.4807 16.2883 36.401 16.2685C36.2401 16.2285 36.0699 16.254 35.9279 16.3394L18.5894 26.7732L4.22195 18.3669C4.07905 18.286 3.91005 18.2646 3.7515 18.3074C3.59294 18.3501 3.45757 18.4535 3.37463 18.5952C3.2917 18.7369 3.26787 18.9056 3.30831 19.0647C3.34874 19.2239 3.45018 19.3607 3.5907 19.4457L18.2782 28.0394C18.3751 28.0961 18.4854 28.1257 18.5976 28.125C18.7098 28.1244 18.8198 28.0935 18.916 28.0357L36.5723 17.4107Z" fill="#8E8173"/>
<path d="M36.7852 20.9279C36.8276 20.9982 36.8556 21.0762 36.8678 21.1573C36.88 21.2385 36.8761 21.3213 36.8563 21.4009C36.8365 21.4806 36.8013 21.5556 36.7525 21.6216C36.7037 21.6876 36.6424 21.7434 36.5721 21.7857L18.9159 32.4107C18.8197 32.4685 18.7097 32.4994 18.5975 32.5C18.4852 32.5007 18.3749 32.4711 18.2781 32.4144L3.59055 23.8207C3.51847 23.7799 3.45522 23.7252 3.40447 23.6597C3.35372 23.5942 3.31649 23.5193 3.29495 23.4393C3.27341 23.3594 3.26797 23.2759 3.27897 23.1938C3.28997 23.1117 3.31717 23.0326 3.35901 22.9611C3.40084 22.8896 3.45647 22.8272 3.52266 22.7774C3.58884 22.7276 3.66427 22.6914 3.74455 22.671C3.82483 22.6506 3.90836 22.6464 3.9903 22.6586C4.07223 22.6707 4.15092 22.6991 4.2218 22.7419L18.589 31.1482L35.9277 20.7144C35.9981 20.6721 36.076 20.6441 36.1572 20.6319C36.2383 20.6197 36.3211 20.6237 36.4007 20.6435C36.4803 20.6633 36.5553 20.6986 36.6213 20.7474C36.6872 20.7962 36.743 20.8575 36.7852 20.9279Z" fill="#8E8173"/>
<path d="M36.5723 25.8482C36.7143 25.7627 36.8166 25.6244 36.8566 25.4635C36.8967 25.3026 36.8711 25.1324 36.7857 24.9904C36.7002 24.8483 36.5619 24.746 36.401 24.706C36.2401 24.666 36.0699 24.6915 35.9279 24.7769L18.5894 35.2107L4.22195 26.8044C4.07905 26.7235 3.91005 26.7021 3.7515 26.7449C3.59294 26.7876 3.45757 26.891 3.37463 27.0327C3.2917 27.1744 3.26787 27.3431 3.30831 27.5022C3.34874 27.6614 3.45018 27.7982 3.5907 27.8832L18.2782 36.4769C18.3751 36.5336 18.4854 36.5632 18.5976 36.5625C18.7098 36.5619 18.8198 36.531 18.916 36.4732L36.5723 25.8482Z" fill="#8E8173"/>
</svg>
