<svg width="40" height="40" viewBox="0 0 40 40" fill="none" xmlns="http://www.w3.org/2000/svg">
<g clip-path="url(#clip0_72_1503)">
<path d="M39.137 18.2435C39.3029 18.1967 39.474 18.1635 39.6553 18.1635C39.7685 18.1635 39.8799 18.1745 39.9863 18.1933L39.9812 18.1252C39.868 18.1465 39.7531 18.1592 39.6357 18.1592C39.4623 18.1568 39.2899 18.131 39.1234 18.0826C38.7141 17.9715 38.3527 17.729 38.0947 17.3924C37.8367 17.0558 37.6964 16.6438 37.6953 16.2197C37.6953 15.59 37.9983 15.0351 38.4647 14.6811C38.6928 14.5066 38.9591 14.3832 39.251 14.3228C39.2383 14.2888 39.2315 14.2539 39.2212 14.2198C38.7341 14.1013 38.3113 13.7995 38.0409 13.3773C37.9075 13.1686 37.8161 12.9359 37.7719 12.6922C37.7489 12.5756 37.7366 12.4571 37.7353 12.3382C37.7353 11.9382 37.8664 11.5757 38.0758 11.2693C37.8123 10.7267 37.5241 10.1966 37.212 9.68044C37.0171 9.89234 36.7771 10.0634 36.5056 10.1715C36.5822 10.2991 36.6554 10.4302 36.7294 10.5596C37.0331 10.7255 37.2868 10.9698 37.464 11.2671C37.6412 11.5643 37.7355 11.9036 37.737 12.2497C37.737 12.3459 37.7217 12.4386 37.709 12.5305C37.6424 13.0182 37.3925 13.4622 37.0102 13.7722C36.6278 14.0821 36.1417 14.2347 35.6508 14.1989C35.1599 14.1632 34.7011 13.9417 34.3677 13.5795C34.0344 13.2174 33.8515 12.7419 33.8564 12.2497C33.8566 11.7354 34.061 11.2422 34.4247 10.8785C34.7884 10.5148 35.2815 10.3104 35.7959 10.3102C35.2815 10.31 34.7884 10.1056 34.4247 9.74189C34.061 9.37821 33.8566 8.88502 33.8564 8.37071C33.8564 7.912 34.0223 7.4967 34.2887 7.16395C34.4683 6.93843 34.6972 6.75461 34.9584 6.6261C34.5552 6.17547 34.1315 5.74355 33.6887 5.33169C33.5585 5.59125 33.3679 5.81677 33.1389 5.99379C32.8015 6.25874 32.3851 6.40314 31.956 6.40398C31.6359 6.4034 31.3208 6.32361 31.039 6.17172C30.7571 6.01983 30.5173 5.80056 30.3408 5.53346C30.1642 5.26636 30.0565 4.95973 30.0273 4.64091C29.998 4.32209 30.0481 4.00099 30.1731 3.70622C30.2885 3.43972 30.4624 3.20264 30.682 3.01264C30.1674 2.69031 29.6389 2.39047 29.0983 2.11395C28.7902 2.31877 28.4291 2.4291 28.0592 2.43139C27.9332 2.43139 27.8115 2.41692 27.6915 2.39394C27.4323 2.34514 27.1858 2.24377 26.9673 2.09608C26.5578 1.81567 26.272 1.38843 26.169 0.90294C26.1398 0.892245 26.1103 0.882313 26.0805 0.873154C26.0493 1.15979 25.9542 1.43577 25.8022 1.68078C25.5894 2.01036 25.2813 2.26736 24.9189 2.41761C24.5564 2.56787 24.1569 2.60426 23.7733 2.52196C23.3897 2.43966 23.0402 2.24256 22.7713 1.95687C22.5024 1.67117 22.3268 1.3104 22.2679 0.922514C22.2498 0.824505 22.2398 0.725162 22.2381 0.625505C22.2381 0.431471 22.2747 0.2485 22.3266 0.0714863C22.273 0.0655291 22.2203 0.0570188 22.1666 0.0519127C22.2092 0.208502 22.2364 0.369346 22.2364 0.537849C22.2365 0.792507 22.1865 1.04469 22.0891 1.28C21.9917 1.5153 21.8489 1.72912 21.6689 1.90923C21.4889 2.08934 21.2751 2.23221 21.0399 2.32969C20.8046 2.42717 20.5524 2.47734 20.2978 2.47734C19.8394 2.4772 19.396 2.31432 19.0466 2.01772C18.6972 1.72111 18.4644 1.31007 18.3898 0.857836C18.3696 0.752312 18.3585 0.645261 18.3566 0.537849C18.3566 0.348921 18.3932 0.171057 18.4434 0L18.2443 0.0153185C18.3106 0.210204 18.3574 0.415301 18.3574 0.634016C18.3574 0.71231 18.3438 0.787201 18.3345 0.862942C18.2801 1.33342 18.0549 1.76757 17.7016 2.08303C17.3483 2.39849 16.8916 2.57332 16.418 2.57436C16.0652 2.5735 15.7195 2.47604 15.4182 2.29255C15.1169 2.10907 14.8717 1.84657 14.7091 1.53355C14.5744 1.27875 14.4988 0.996907 14.4878 0.708906L14.4631 0.715714C14.4304 1.08494 14.2918 1.43688 14.064 1.72929C13.8847 1.9639 13.6538 2.15414 13.3892 2.28533C13.1246 2.41651 12.8334 2.48512 12.5381 2.48585C12.0486 2.48236 11.5789 2.29211 11.225 1.95396C10.664 2.22723 10.1159 2.52626 9.5825 2.85009C9.89383 3.01584 10.1545 3.26276 10.3368 3.56467C10.5192 3.86658 10.6164 4.21221 10.6182 4.56491C10.6182 4.81979 10.568 5.07218 10.4704 5.30765C10.3729 5.54311 10.2299 5.75705 10.0496 5.93724C9.86932 6.11743 9.65532 6.26034 9.41981 6.3578C9.18429 6.45526 8.93189 6.50537 8.67701 6.50525C8.37947 6.50473 8.0861 6.43531 7.81989 6.30242C7.55368 6.16954 7.32186 5.9768 7.1426 5.73933C6.95738 5.49916 6.83063 5.21915 6.77241 4.92149C6.73071 4.95809 6.6873 4.99298 6.64646 5.03042C6.55331 5.34387 6.38196 5.62846 6.14852 5.85743C5.91508 6.0864 5.62723 6.25223 5.31204 6.3393C5.27034 6.38441 5.22524 6.42781 5.18439 6.47292C5.48565 6.54355 5.76139 6.68057 5.99202 6.8729C6.41753 7.22948 6.69496 7.75882 6.69496 8.35794C6.69496 8.61264 6.6448 8.86484 6.54733 9.10015C6.44986 9.33546 6.307 9.54927 6.1269 9.72937C5.9468 9.90947 5.73299 10.0523 5.49768 10.1498C5.26237 10.2473 5.01017 10.2974 4.75547 10.2974C5.01028 10.2974 5.26261 10.3475 5.49804 10.445C5.73348 10.5424 5.94741 10.6853 6.12763 10.8654C6.30784 11.0456 6.45082 11.2595 6.54838 11.4948C6.64594 11.7302 6.69619 11.9825 6.69624 12.2374C6.6963 12.4922 6.64616 12.7445 6.5487 12.9799C6.45124 13.2154 6.30837 13.4293 6.12823 13.6095C5.94809 13.7897 5.73422 13.9327 5.49883 14.0303C5.26344 14.1278 5.01113 14.1781 4.75632 14.1781C4.24171 14.1782 3.74813 13.9739 3.38417 13.6101C3.0202 13.2463 2.81567 12.7528 2.81555 12.2382C2.81544 11.7236 3.01976 11.23 3.38357 10.866C3.74737 10.5021 4.24086 10.2975 4.75547 10.2974C4.35563 10.2969 3.96581 10.1723 3.63978 9.94085C3.39449 9.76628 3.19221 9.5381 3.04831 9.27365C2.73548 9.76731 2.44443 10.2744 2.17601 10.7936C2.42025 11.0183 2.61173 11.2982 2.71471 11.6225C2.77428 11.8097 2.81598 12.0046 2.81598 12.2114C2.81598 12.9543 2.39387 13.5918 1.78028 13.9186C1.50256 14.0696 1.19179 14.1497 0.875637 14.1517C0.85266 14.1517 0.830533 14.1441 0.807555 14.1424L0.804151 14.156C0.814363 14.156 0.823725 14.1517 0.833937 14.1517C1.12329 14.1517 1.39562 14.219 1.64156 14.333C1.97894 14.4869 2.26497 14.7346 2.46564 15.0464C2.6663 15.3583 2.77313 15.7212 2.77343 16.0921C2.77294 16.5964 2.57569 17.0806 2.22364 17.4417C1.8716 17.8028 1.39254 18.0123 0.888403 18.0256C0.870531 18.0265 0.851809 18.0316 0.833937 18.0316C0.553098 18.0316 0.291832 17.9618 0.0509916 17.8537C0.0373751 17.9848 0.0280138 18.1167 0.0160994 18.2486C0.272259 18.1235 0.549694 18.0358 0.853511 18.0358C0.865425 18.0358 0.874786 18.0392 0.886701 18.0392C1.39524 18.0473 1.88025 18.2548 2.23717 18.6172C2.59409 18.9795 2.79432 19.4676 2.7947 19.9762C2.7943 20.4856 2.59333 20.9743 2.23529 21.3366C1.87726 21.699 1.39094 21.9058 0.881595 21.9123C0.873084 21.9131 0.863723 21.9157 0.853511 21.9157C0.547992 21.9157 0.268004 21.8272 0.0126953 21.7012C0.0229076 21.8289 0.0305669 21.9599 0.0441833 22.0884C0.279918 21.9829 0.537779 21.9157 0.813512 21.9157C0.83649 21.9157 0.858617 21.9225 0.883297 21.9225C1.3846 21.9401 1.85955 22.1514 2.20824 22.512C2.55694 22.8726 2.75221 23.3544 2.753 23.856C2.753 24.6364 2.28919 25.3045 1.62454 25.6117C1.37084 25.7313 1.09399 25.7937 0.813512 25.7946C0.8033 25.7946 0.796492 25.7912 0.78713 25.7912L0.792237 25.8066C0.820321 25.8049 0.845851 25.7946 0.873935 25.7946C1.19477 25.7946 1.49093 25.8806 1.75645 26.0176C2.07428 26.1784 2.3414 26.4241 2.52826 26.7273C2.71511 27.0306 2.8144 27.3796 2.81513 27.7358C2.81513 27.9563 2.77002 28.1631 2.70194 28.3596C2.59311 28.6734 2.40453 28.9535 2.15473 29.1724C2.42366 29.6924 2.71301 30.2013 3.02363 30.6949C3.19108 30.3937 3.43598 30.1427 3.73299 29.9679C4.03 29.7932 4.36831 29.701 4.71292 29.7009C4.96776 29.7009 5.2201 29.7511 5.45553 29.8487C5.69095 29.9462 5.90483 30.0892 6.08495 30.2695C6.26507 30.4498 6.4079 30.6638 6.50527 30.8993C6.60263 31.1348 6.65264 31.3872 6.65241 31.6421C6.65184 31.9214 6.59041 32.1973 6.47239 32.4506C6.35437 32.7038 6.18261 32.9283 5.96904 33.1084C5.73879 33.3056 5.46532 33.4459 5.17077 33.5177C5.22439 33.5756 5.28056 33.6318 5.33502 33.6896C5.61929 33.7827 5.87804 33.9405 6.09086 34.1507C6.30369 34.3608 6.46475 34.6176 6.56135 34.9006C6.62603 34.9585 6.69411 35.0147 6.75879 35.0725C6.8456 34.784 6.98942 34.5228 7.18771 34.3066C7.36789 34.1076 7.58771 33.9484 7.83306 33.8394C8.0784 33.7303 8.34384 33.6738 8.61233 33.6735C9.12671 33.6735 9.62003 33.8778 9.98376 34.2415C10.3475 34.6052 10.5518 35.0986 10.5518 35.6129C10.5518 35.9636 10.4523 36.2895 10.2889 36.5721C10.1385 36.8296 9.93085 37.0492 9.68207 37.2137C10.1425 37.4903 10.6182 37.7473 11.1016 37.9873C11.4596 37.6284 11.9444 37.4245 12.4513 37.4197C13.1194 37.4197 13.71 37.7575 14.0589 38.2733C14.2521 38.5575 14.3585 38.8988 14.3763 39.2647C14.3896 39.2688 14.4029 39.2725 14.4163 39.2758C14.4444 38.9805 14.5261 38.7022 14.6708 38.4613C14.8407 38.1718 15.0833 37.9317 15.3745 37.7647C15.6657 37.5976 15.9954 37.5095 16.3312 37.509C17.2954 37.509 18.0894 38.2137 18.2409 39.1345C18.2579 39.2375 18.2723 39.3422 18.2723 39.4485C18.2723 39.6366 18.2375 39.8136 18.1872 39.9838C18.257 39.9915 18.3268 39.9957 18.3983 40.0008C18.318 39.7945 18.2753 39.5755 18.2723 39.3541C18.2723 39.2809 18.286 39.2111 18.2936 39.1396C18.3444 38.6661 18.5683 38.228 18.9223 37.9094C19.2764 37.5909 19.7356 37.4144 20.2118 37.4137C21.1956 37.4137 22.0007 38.149 22.1266 39.0996C22.1369 39.1839 22.1505 39.2656 22.1505 39.3541C22.1505 39.5711 22.1037 39.7728 22.0373 39.9685C22.0994 39.9617 22.1624 39.9506 22.2279 39.9464C22.1787 39.7829 22.1526 39.6133 22.1505 39.4426C22.1505 39.3226 22.1666 39.2068 22.1854 39.092C22.2545 38.7129 22.4351 38.363 22.704 38.0871C22.973 37.8111 23.3181 37.6216 23.6953 37.5428C24.0725 37.4639 24.4646 37.4993 24.8215 37.6445C25.1785 37.7896 25.4841 38.0378 25.6993 38.3575C25.8593 38.5915 25.9452 38.8707 25.9895 39.1617C26.0082 39.1558 26.0278 39.1481 26.0465 39.143C26.0814 38.7498 26.2312 38.3907 26.4652 38.0979C26.6454 37.8708 26.8745 37.6873 27.1354 37.561C27.3964 37.4347 27.6825 37.369 27.9724 37.3686C28.0438 37.3686 28.1094 37.3822 28.1775 37.3882C28.5698 37.4316 28.9187 37.5958 29.2046 37.8333C29.7022 37.5764 30.1886 37.2985 30.6625 37.0001C30.4415 36.8205 30.2632 36.594 30.1404 36.337C30.0177 36.08 29.9536 35.799 29.9527 35.5142C29.9527 34.9998 30.157 34.5065 30.5208 34.1428C30.8845 33.7791 31.3778 33.5747 31.8922 33.5747C32.3611 33.5747 32.7849 33.7475 33.1194 34.0232C33.3449 34.2096 33.5245 34.4419 33.6479 34.7083C34.0946 34.2945 34.5222 33.8606 34.9295 33.4079C34.6671 33.2833 34.436 33.1016 34.2529 32.876C33.9691 32.5328 33.8128 32.1019 33.8104 31.6565C33.8107 31.3382 33.8892 31.0249 34.0392 30.7441C34.1891 30.4634 34.4058 30.2238 34.6702 30.0466C34.9346 29.8693 35.2385 29.7598 35.5551 29.7277C35.8718 29.6956 36.1915 29.7419 36.486 29.8626C36.7558 29.974 36.9932 30.1494 37.1847 30.3647C37.4834 29.8753 37.7558 29.369 38.0102 28.8532C37.8292 28.5553 37.7327 28.2138 37.7311 27.8652C37.7311 26.9733 38.3362 26.2321 39.154 26.0031C39.1676 25.9589 39.1787 25.9146 39.1923 25.8729C38.9076 25.8078 38.6408 25.6806 38.4111 25.5002C38.1811 25.3205 37.9948 25.091 37.8664 24.8289C37.738 24.5668 37.6708 24.2789 37.6698 23.9871C37.6698 23.0935 38.2766 22.3497 39.0961 22.1242C39.2604 22.0791 39.4323 22.0459 39.611 22.0459C39.731 22.0459 39.8467 22.0603 39.9599 22.0808C39.9616 22.0612 39.9633 22.0391 39.9667 22.0186C39.8625 22.0368 39.7568 22.0459 39.651 22.0459C39.4646 22.0459 39.2868 22.011 39.1174 21.9616C38.7131 21.8469 38.3572 21.6036 38.1035 21.2686C37.8498 20.9335 37.7122 20.5249 37.7115 20.1047C37.7137 19.6815 37.8542 19.2706 38.1116 18.9346C38.3689 18.5986 38.729 18.3559 39.137 18.2435ZM35.7576 14.1909C36.0171 14.1833 36.2755 14.2279 36.5175 14.322C36.7595 14.4161 36.9801 14.5579 37.1663 14.7388C37.3526 14.9197 37.5006 15.1362 37.6016 15.3754C37.7026 15.6146 37.7546 15.8716 37.7545 16.1313C37.7544 16.3909 37.7022 16.6479 37.6009 16.887C37.4997 17.1261 37.3515 17.3424 37.1651 17.5232C36.9787 17.704 36.758 17.8455 36.5159 17.9394C36.2738 18.0333 36.0154 18.0777 35.7559 18.0699C35.2514 18.0547 34.7727 17.8436 34.4214 17.4814C34.07 17.1191 33.8736 16.6342 33.8738 16.1296C33.874 15.6249 34.0709 15.1402 34.4226 14.7782C34.7742 14.4163 35.2531 14.2056 35.7576 14.1909ZM16.395 29.7443C16.1402 29.7442 15.8879 29.6939 15.6525 29.5962C15.4171 29.4986 15.2033 29.3556 15.0232 29.1754C14.8431 28.9951 14.7003 28.7811 14.6029 28.5457C14.5055 28.3102 14.4554 28.0579 14.4555 27.8031C14.4556 27.5483 14.5059 27.296 14.6035 27.0606C14.7011 26.8252 14.8441 26.6114 15.0244 26.4313C15.2047 26.2512 15.4186 26.1084 15.6541 26.011C15.8895 25.9135 16.1419 25.8635 16.3967 25.8636C16.9113 25.8638 17.4047 26.0684 17.7685 26.4325C18.1322 26.7965 18.3364 27.2902 18.3362 27.8048C18.3359 28.3194 18.1313 28.8128 17.7673 29.1766C17.4032 29.5403 16.9096 29.7445 16.395 29.7443ZM18.2945 31.6838C18.2945 32.1984 18.09 32.6919 17.7262 33.0558C17.3623 33.4197 16.8687 33.6241 16.3541 33.6241C15.8395 33.6241 15.346 33.4197 14.9821 33.0558C14.6182 32.6919 14.4138 32.1984 14.4138 31.6838C14.4138 31.1691 14.6182 30.6756 14.9821 30.3117C15.346 29.9478 15.8395 29.7434 16.3541 29.7434C16.8687 29.7434 17.3623 29.9478 17.7262 30.3117C18.09 30.6756 18.2945 31.1691 18.2945 31.6838ZM6.67369 20.0017C6.6738 20.2564 6.62374 20.5086 6.52638 20.744C6.42901 20.9793 6.28625 21.1932 6.10623 21.3734C5.92621 21.5536 5.71246 21.6965 5.47719 21.7941C5.24193 21.8917 4.98975 21.9419 4.73505 21.942C4.48035 21.9422 4.22812 21.8921 3.99277 21.7947C3.75742 21.6974 3.54355 21.5546 3.36337 21.3746C3.18319 21.1946 3.04024 20.9808 2.94267 20.7456C2.84509 20.5103 2.79482 20.2581 2.7947 20.0034C2.79448 19.489 2.9986 18.9956 3.36217 18.6317C3.72573 18.2678 4.21896 18.0633 4.73335 18.0631C5.24773 18.0628 5.74114 18.267 6.10502 18.6305C6.46891 18.9941 6.67346 19.4873 6.67369 20.0017ZM6.65326 16.2061C6.65315 15.9514 6.70321 15.6992 6.80057 15.4638C6.89794 15.2285 7.04071 15.0146 7.22073 14.8344C7.40074 14.6543 7.61449 14.5113 7.84976 14.4137C8.08502 14.3162 8.33721 14.2659 8.5919 14.2658C8.8466 14.2657 9.09883 14.3157 9.33418 14.4131C9.56953 14.5104 9.7834 14.6532 9.96358 14.8332C10.3275 15.1968 10.532 15.69 10.5322 16.2044C10.5325 16.7188 10.3284 17.2122 9.96479 17.5761C9.60122 17.94 9.10799 18.1445 8.59361 18.1448C8.07922 18.145 7.58581 17.9409 7.22193 17.5773C6.85804 17.2137 6.65349 16.7205 6.65326 16.2061ZM8.61403 18.1499C9.12864 18.1496 9.62226 18.3539 9.98631 18.7176C10.3504 19.0813 10.555 19.5747 10.5552 20.0894C10.5555 20.604 10.3512 21.0976 9.98751 21.4616C9.62379 21.8257 9.13034 22.0303 8.61573 22.0306C8.36092 22.0307 8.10859 21.9806 7.87313 21.8832C7.63768 21.7858 7.42371 21.6429 7.24345 21.4628C7.0632 21.2827 6.92018 21.0689 6.82256 20.8335C6.72495 20.5982 6.67465 20.3459 6.67454 20.0911C6.67443 19.8362 6.72451 19.5839 6.82191 19.3485C6.91932 19.113 7.06215 18.899 7.24225 18.7188C7.60598 18.3547 8.09942 18.1501 8.61403 18.1499ZM14.4538 8.39879C14.4536 8.01503 14.5672 7.63983 14.7803 7.32065C14.9934 7.00147 15.2963 6.75264 15.6508 6.60562C16.0053 6.45861 16.3954 6.42001 16.7718 6.49471C17.1483 6.56942 17.4941 6.75407 17.7656 7.02531C18.037 7.29655 18.222 7.64221 18.297 8.01856C18.3721 8.39492 18.3338 8.78508 18.1871 9.13969C18.0404 9.49431 17.7918 9.79746 17.4728 10.0108C17.1538 10.2242 16.7787 10.3381 16.395 10.3383C16.6498 10.3384 16.9021 10.3887 17.1374 10.4863C17.3728 10.5839 17.5867 10.7269 17.7668 10.9072C17.9469 11.0875 18.0897 11.3014 18.1871 11.5369C18.2845 11.7723 18.3346 12.0247 18.3345 12.2795C18.3344 12.5343 18.2841 12.7866 18.1864 13.0219C18.0888 13.2573 17.9458 13.4712 17.7656 13.6513C17.5853 13.8314 17.3713 13.9742 17.1359 14.0716C16.9004 14.169 16.6481 14.2191 16.3933 14.219C15.8787 14.2187 15.3852 14.0141 15.0215 13.6501C14.6578 13.286 14.4536 12.7924 14.4538 12.2778C14.454 11.7632 14.6587 11.2697 15.0227 10.906C15.3867 10.5423 15.8804 10.3381 16.395 10.3383C16.1402 10.3384 15.8878 10.2883 15.6524 10.1909C15.4169 10.0935 15.203 9.95067 15.0227 9.77057C14.8424 9.59047 14.6994 9.37663 14.6018 9.14126C14.5042 8.90589 14.4539 8.6536 14.4538 8.39879ZM18.3353 8.30348C18.3352 7.91964 18.4488 7.54438 18.662 7.22516C18.8751 6.90594 19.1781 6.65711 19.5327 6.51014C19.8873 6.36318 20.2775 6.32468 20.654 6.39952C21.0305 6.47437 21.3763 6.65918 21.6477 6.9306C21.9191 7.20201 22.1039 7.54782 22.1788 7.92429C22.2536 8.30076 22.2151 8.69097 22.0681 9.04556C21.9212 9.40014 21.6723 9.70317 21.3531 9.91632C21.0339 10.1295 20.6586 10.2431 20.2748 10.243C20.5343 10.2352 20.7928 10.2795 21.0349 10.3734C21.2769 10.4673 21.4977 10.6089 21.6841 10.7896C21.8704 10.9704 22.0186 11.1868 22.1199 11.4259C22.2211 11.665 22.2733 11.9219 22.2735 12.1816C22.2736 12.4412 22.2216 12.6983 22.1205 12.9374C22.0195 13.1766 21.8715 13.3931 21.6853 13.574C21.4991 13.755 21.2784 13.8967 21.0365 13.9908C20.7945 14.0849 20.536 14.1295 20.2765 14.122C19.7721 14.1072 19.2932 13.8965 18.9415 13.5346C18.5898 13.1727 18.393 12.6879 18.3928 12.1833C18.3926 11.6786 18.589 11.1937 18.9403 10.8315C19.2917 10.4692 19.7704 10.2581 20.2748 10.243C19.7605 10.2427 19.2673 10.0383 18.9036 9.67465C18.54 9.31098 18.3355 8.81779 18.3353 8.30348ZM26.0958 8.25667C26.0957 7.87283 26.2094 7.49757 26.4225 7.17835C26.6356 6.85913 26.9387 6.6103 27.2933 6.46334C27.6478 6.31637 28.038 6.27788 28.4145 6.35272C28.791 6.42756 29.1368 6.61238 29.4082 6.88379C29.6796 7.1552 29.8644 7.50102 29.9393 7.87748C30.0141 8.25395 29.9756 8.64416 29.8287 8.99875C29.6817 9.35333 29.4329 9.65637 29.1136 9.86951C28.7944 10.0827 28.4192 10.1963 28.0353 10.1962C28.5499 10.196 29.0435 10.4004 29.4075 10.7642C29.7715 11.128 29.976 11.6215 29.9761 12.1361C29.9762 12.6507 29.7719 13.1443 29.4081 13.5082C29.0443 13.8722 28.5508 14.0767 28.0362 14.0768C27.5216 14.077 27.028 13.8726 26.664 13.5088C26.3001 13.145 26.0955 12.6515 26.0954 12.1369C26.0953 11.6223 26.2996 11.1287 26.6634 10.7648C27.0272 10.4008 27.5207 10.1963 28.0353 10.1962C27.521 10.1959 27.0278 9.99152 26.6642 9.62785C26.3005 9.26417 26.0961 8.77098 26.0958 8.25667ZM16.3746 21.9837C15.8599 21.9835 15.3665 21.7789 15.0028 21.4148C14.639 21.0508 14.4348 20.5572 14.4351 20.0426C14.4353 19.5279 14.6399 19.0345 15.004 18.6708C15.368 18.307 15.8616 18.1028 16.3763 18.1031C16.8909 18.1033 17.3843 18.3079 17.748 18.672C18.1118 19.036 18.316 19.5296 18.3157 20.0443C18.3155 20.5589 18.1109 21.0523 17.7468 21.416C17.3828 21.7798 16.8892 21.984 16.3746 21.9837ZM18.2749 23.9232C18.2749 24.4378 18.0705 24.9314 17.7066 25.2953C17.3427 25.6591 16.8492 25.8636 16.3346 25.8636C15.8199 25.8636 15.3264 25.6591 14.9625 25.2953C14.5986 24.9314 14.3942 24.4378 14.3942 23.9232C14.3942 23.6684 14.4444 23.4161 14.5419 23.1807C14.6394 22.9453 14.7823 22.7314 14.9625 22.5512C15.1427 22.371 15.3566 22.2281 15.592 22.1306C15.8274 22.0331 16.0797 21.9829 16.3346 21.9829C16.5894 21.9829 16.8417 22.0331 17.0771 22.1306C17.3125 22.2281 17.5264 22.371 17.7066 22.5512C17.8868 22.7314 18.0297 22.9453 18.1272 23.1807C18.2247 23.4161 18.2749 23.6684 18.2749 23.9232ZM12.4956 21.8961C12.2375 21.9015 11.981 21.8553 11.741 21.7603C11.501 21.6653 11.2824 21.5233 11.098 21.3427C10.9135 21.1621 10.767 20.9466 10.667 20.7086C10.567 20.4707 10.5155 20.2151 10.5155 19.957C10.5155 19.6989 10.567 19.4434 10.667 19.2054C10.767 18.9675 10.9135 18.7519 11.098 18.5713C11.2824 18.3907 11.501 18.2487 11.741 18.1537C11.981 18.0587 12.2375 18.0126 12.4956 18.018C13.0028 18.0286 13.4857 18.2375 13.8407 18.6C14.1956 18.9625 14.3944 19.4497 14.3944 19.957C14.3944 20.4644 14.1956 20.9515 13.8407 21.314C13.4857 21.6765 13.0028 21.8855 12.4956 21.8961ZM22.176 16.1525C22.1682 15.893 22.2126 15.6345 22.3065 15.3925C22.4004 15.1504 22.5419 14.9296 22.7227 14.7432C22.9035 14.5569 23.1198 14.4087 23.3589 14.3074C23.598 14.2062 23.855 14.154 24.1146 14.1539C24.3743 14.1537 24.6313 14.2057 24.8705 14.3068C25.1097 14.4078 25.3261 14.5558 25.5071 14.742C25.688 14.9282 25.8297 15.1489 25.9239 15.3909C26.018 15.6329 26.0626 15.8913 26.055 16.1508C26.0403 16.6552 25.8296 17.1341 25.4676 17.4858C25.1057 17.8375 24.621 18.0343 24.1163 18.0345C23.6117 18.0348 23.1268 17.8384 22.7645 17.487C22.4023 17.1356 22.1912 16.6569 22.176 16.1525ZM22.1947 19.9472C22.1947 20.4616 21.9904 20.9549 21.6267 21.3187C21.2629 21.6824 20.7696 21.8867 20.2552 21.8867C19.7409 21.8867 19.2475 21.6824 18.8838 21.3187C18.5201 20.9549 18.3157 20.4616 18.3157 19.9472C18.3157 19.4328 18.5201 18.9395 18.8838 18.5758C19.2475 18.2121 19.7409 18.0077 20.2552 18.0077C20.7696 18.0077 21.2629 18.2121 21.6267 18.5758C21.9904 18.9395 22.1947 19.4328 22.1947 19.9472ZM20.2348 18.0035C19.98 18.0035 19.7277 17.9534 19.4922 17.8559C19.2568 17.7585 19.0429 17.6156 18.8627 17.4355C18.6824 17.2553 18.5395 17.0415 18.4419 16.8061C18.3443 16.5707 18.2941 16.3184 18.294 16.0636C18.294 15.8088 18.3441 15.5564 18.4416 15.321C18.539 15.0856 18.6819 14.8716 18.8621 14.6914C19.0422 14.5112 19.2561 14.3682 19.4915 14.2707C19.7269 14.1731 19.9792 14.1229 20.234 14.1228C20.7486 14.1227 21.2422 14.327 21.6061 14.6908C21.9701 15.0546 22.1746 15.5481 22.1747 16.0627C22.1748 16.5773 21.9705 17.0709 21.6067 17.4349C21.2429 17.7988 20.7494 18.0034 20.2348 18.0035ZM20.2135 21.8884C20.7279 21.8884 21.2212 22.0928 21.585 22.4565C21.9487 22.8202 22.153 23.3135 22.153 23.8279C22.153 24.3423 21.9487 24.8356 21.585 25.1993C21.2212 25.5631 20.7279 25.7674 20.2135 25.7674C19.6992 25.7674 19.2058 25.5631 18.8421 25.1993C18.4784 24.8356 18.274 24.3423 18.274 23.8279C18.274 23.3135 18.4784 22.8202 18.8421 22.4565C19.2058 22.0928 19.6992 21.8884 20.2135 21.8884ZM20.2757 25.7683C20.5352 25.7606 20.7936 25.8051 21.0357 25.8991C21.2777 25.9931 21.4984 26.1347 21.6847 26.3156C21.871 26.4964 22.0191 26.7128 22.1202 26.952C22.2214 27.1911 22.2735 27.4481 22.2735 27.7078C22.2735 27.9674 22.2214 28.2244 22.1202 28.4635C22.0191 28.7027 21.871 28.9191 21.6847 29.1C21.4984 29.2808 21.2777 29.4224 21.0357 29.5165C20.7936 29.6105 20.5352 29.6549 20.2757 29.6472C19.7712 29.6323 19.2925 29.4214 18.9409 29.0593C18.5894 28.6972 18.3928 28.2124 18.3928 27.7078C18.3928 27.2031 18.5894 26.7183 18.9409 26.3562C19.2925 25.9941 19.7712 25.7832 20.2757 25.7683ZM22.153 23.9173C22.153 23.4027 22.3575 22.9091 22.7213 22.5452C23.0852 22.1814 23.5788 21.9769 24.0934 21.9769C24.608 21.9769 25.1015 22.1814 25.4654 22.5452C25.8293 22.9091 26.0337 23.4027 26.0337 23.9173C26.0337 24.4317 25.8294 24.925 25.4657 25.2887C25.1019 25.6524 24.6086 25.8568 24.0942 25.8568C23.5798 25.8565 23.0864 25.6522 22.7224 25.2886C22.3585 24.9249 22.1537 24.4318 22.153 23.9173ZM24.1342 21.9752C23.6196 21.975 23.1262 21.7704 22.7624 21.4063C22.3987 21.0423 22.1945 20.5487 22.1947 20.034C22.195 19.5194 22.3996 19.026 22.7636 18.6623C23.1277 18.2985 23.6213 18.0943 24.1359 18.0945C24.6505 18.0948 25.144 18.2994 25.5077 18.6635C25.8714 19.0275 26.0756 19.5211 26.0754 20.0357C26.0752 20.5504 25.8705 21.0438 25.5065 21.4075C25.1425 21.7712 24.6488 21.9755 24.1342 21.9752ZM27.9741 21.8416C28.4884 21.8416 28.9818 22.046 29.3455 22.4097C29.7092 22.7734 29.9136 23.2667 29.9136 23.7811C29.9136 24.2955 29.7092 24.7888 29.3455 25.1525C28.9818 25.5163 28.4884 25.7206 27.9741 25.7206C27.4597 25.7206 26.9664 25.5163 26.6026 25.1525C26.2389 24.7888 26.0346 24.2955 26.0346 23.7811C26.0346 23.2667 26.2389 22.7734 26.6026 22.4097C26.9664 22.046 27.4597 21.8416 27.9741 21.8416ZM28.0158 21.8416C27.7609 21.8415 27.5087 21.7912 27.2733 21.6936C27.0379 21.596 26.8241 21.453 26.644 21.2727C26.4639 21.0925 26.3211 20.8785 26.2236 20.643C26.1262 20.4076 26.0762 20.1552 26.0763 19.9004C26.0764 19.6456 26.1267 19.3933 26.2243 19.158C26.3219 18.9226 26.4649 18.7087 26.6452 18.5286C26.8254 18.3485 27.0394 18.2057 27.2749 18.1083C27.5103 18.0109 27.7627 17.9608 28.0175 17.9609C28.5321 17.9612 29.0255 18.1658 29.3892 18.5299C29.753 18.8939 29.9572 19.3875 29.957 19.9021C29.9567 20.4167 29.7521 20.9102 29.388 21.2739C29.024 21.6376 28.5304 21.8418 28.0158 21.8416ZM29.9357 16.1057C29.9302 15.8475 29.9763 15.5909 30.0713 15.3507C30.1664 15.1106 30.3083 14.8919 30.489 14.7074C30.6696 14.5228 30.8853 14.3762 31.1233 14.2761C31.3613 14.176 31.6169 14.1244 31.8752 14.1243C32.1334 14.1242 32.389 14.1757 32.6271 14.2757C32.8652 14.3758 33.0809 14.5223 33.2616 14.7067C33.4423 14.8912 33.5844 15.1099 33.6795 15.35C33.7746 15.59 33.8209 15.8467 33.8155 16.1048C33.805 16.6123 33.5961 17.0955 33.2335 17.4507C32.8709 17.8059 32.3836 18.0049 31.876 18.005C31.3684 18.0051 30.881 17.8063 30.5183 17.4513C30.1556 17.0962 29.9464 16.6132 29.9357 16.1057ZM27.9953 17.9575C27.7405 17.9576 27.4882 17.9075 27.2528 17.81C27.0173 17.7125 26.8034 17.5697 26.6232 17.3895C26.443 17.2094 26.3 16.9955 26.2024 16.7601C26.1049 16.5247 26.0546 16.2724 26.0546 16.0176C26.0545 15.7628 26.1046 15.5105 26.2021 15.275C26.2996 15.0396 26.4424 14.8257 26.6226 14.6455C26.8027 14.4652 27.0166 14.3223 27.252 14.2247C27.4874 14.1271 27.7397 14.0769 27.9945 14.0768C28.5091 14.0767 29.0027 14.2811 29.3666 14.6449C29.7306 15.0087 29.9351 15.5022 29.9353 16.0168C29.9354 16.5314 29.731 17.025 29.3672 17.3889C29.0034 17.7529 28.5099 17.9574 27.9953 17.9575ZM24.1563 10.3315C24.4159 10.3238 24.6743 10.3683 24.9163 10.4623C25.1584 10.5563 25.3791 10.6979 25.5654 10.8788C25.7517 11.0596 25.8998 11.276 26.0009 11.5152C26.102 11.7543 26.1542 12.0113 26.1542 12.271C26.1542 12.5306 26.102 12.7876 26.0009 13.0268C25.8998 13.2659 25.7517 13.4823 25.5654 13.6632C25.3791 13.844 25.1584 13.9857 24.9163 14.0797C24.6743 14.1737 24.4159 14.2181 24.1563 14.2105C23.6519 14.1955 23.1731 13.9846 22.8216 13.6225C22.4701 13.2604 22.2735 12.7756 22.2735 12.271C22.2735 11.7663 22.4701 11.2815 22.8216 10.9194C23.1731 10.5573 23.6519 10.3464 24.1563 10.3315C23.8982 10.3369 23.6415 10.2908 23.4014 10.1958C23.1613 10.1008 22.9425 9.95882 22.758 9.77818C22.5735 9.59755 22.4268 9.3819 22.3267 9.14387C22.2266 8.90584 22.175 8.65022 22.1749 8.39199C22.1749 8.13376 22.2264 7.87812 22.3264 7.64005C22.4264 7.40197 22.5729 7.18626 22.7574 7.00554C22.9419 6.82483 23.1605 6.68275 23.4006 6.58764C23.6407 6.49253 23.8973 6.44629 24.1555 6.45164C24.663 6.46216 25.1461 6.6711 25.5013 7.03367C25.8565 7.39624 26.0555 7.88357 26.0556 8.39114C26.0557 8.89871 25.857 9.38612 25.5019 9.74885C25.1469 10.1116 24.6638 10.3207 24.1563 10.3315ZM16.3541 14.219C16.6089 14.2191 16.8612 14.2694 17.0966 14.367C17.332 14.4646 17.5458 14.6076 17.7259 14.7879C17.906 14.9681 18.0488 15.1821 18.1462 15.4176C18.2437 15.653 18.2937 15.9054 18.2936 16.1602C18.2935 16.415 18.2432 16.6673 18.1456 16.9026C18.048 17.138 17.905 17.3518 17.7247 17.5319C17.5444 17.712 17.3305 17.8549 17.095 17.9523C16.8596 18.0497 16.6072 18.0998 16.3524 18.0997C15.8378 18.0994 15.3444 17.8948 14.9806 17.5307C14.6169 17.1667 14.4127 16.6731 14.4129 16.1585C14.4132 15.6438 14.6178 15.1504 14.9818 14.7867C15.3459 14.423 15.8395 14.2187 16.3541 14.219ZM12.4751 18.0111C11.9605 18.0113 11.467 17.8069 11.103 17.4431C10.739 17.0793 10.5345 16.5858 10.5344 16.0712C10.5343 15.5566 10.7386 15.063 11.1024 14.6991C11.4662 14.3351 11.9597 14.1306 12.4743 14.1305C12.7291 14.1304 12.9814 14.1805 13.2169 14.278C13.4523 14.3755 13.6662 14.5183 13.8464 14.6985C14.0267 14.8786 14.1696 15.0925 14.2672 15.3279C14.3648 15.5633 14.415 15.8156 14.4151 16.0704C14.4151 16.3252 14.365 16.5775 14.2675 16.8129C14.1701 17.0484 14.0272 17.2623 13.847 17.4425C13.6669 17.6227 13.453 17.7657 13.2176 17.8633C12.9823 17.9608 12.73 18.0111 12.4751 18.0111ZM8.57403 22.0306C8.82884 22.0307 9.08113 22.081 9.31651 22.1786C9.55188 22.2762 9.76571 22.4192 9.94581 22.5995C10.1259 22.7797 10.2687 22.9937 10.3662 23.2291C10.4636 23.4646 10.5136 23.7169 10.5135 23.9717C10.5134 24.2266 10.4631 24.4788 10.3655 24.7142C10.2679 24.9496 10.1249 25.1634 9.94461 25.3435C9.76435 25.5236 9.55039 25.6665 9.31493 25.7639C9.07948 25.8613 8.82714 25.9113 8.57233 25.9112C8.05772 25.911 7.56428 25.7064 7.20055 25.3423C6.83682 24.9783 6.63261 24.4847 6.63284 23.97C6.63307 23.4554 6.83771 22.962 7.20175 22.5983C7.5658 22.2345 8.05942 22.0303 8.57403 22.0306ZM8.63446 25.9095C8.88927 25.9095 9.14159 25.9596 9.37703 26.0571C9.61246 26.1545 9.82639 26.2974 10.0066 26.4775C10.1868 26.6577 10.3298 26.8716 10.4274 27.1069C10.5249 27.3423 10.5752 27.5946 10.5752 27.8494C10.5753 28.1043 10.5251 28.3566 10.4277 28.592C10.3302 28.8275 10.1873 29.0414 10.0072 29.2216C9.82707 29.4018 9.6132 29.5448 9.37781 29.6424C9.14242 29.7399 8.89012 29.7902 8.63531 29.7902C8.1207 29.7903 7.62712 29.586 7.26315 29.2222C6.89919 28.8584 6.69465 28.3649 6.69454 27.8503C6.69443 27.3357 6.89875 26.8421 7.26255 26.4781C7.62636 26.1142 8.11984 25.9096 8.63446 25.9095ZM10.5135 23.8364C10.5081 23.5783 10.5542 23.3216 10.6492 23.0815C10.7442 22.8414 10.8862 22.6226 11.0668 22.4381C11.2474 22.2536 11.4631 22.1069 11.7011 22.0068C11.9392 21.9067 12.1948 21.8551 12.453 21.855C12.7112 21.855 12.9669 21.9065 13.205 22.0065C13.443 22.1065 13.6587 22.253 13.8395 22.4375C14.0202 22.6219 14.1622 22.8406 14.2574 23.0807C14.3525 23.3208 14.3987 23.5774 14.3934 23.8356C14.3828 24.343 14.1739 24.8262 13.8113 25.1814C13.4488 25.5366 12.9614 25.7356 12.4539 25.7357C11.9463 25.7358 11.4589 25.537 11.0961 25.182C10.7334 24.8269 10.5243 24.3439 10.5135 23.8364ZM12.5151 25.7759C13.0294 25.7758 13.5227 25.98 13.8864 26.3436C14.2501 26.7071 14.4545 27.2003 14.4546 27.7146C14.4547 28.2288 14.2506 28.7221 13.887 29.0858C13.5234 29.4495 13.0303 29.6539 12.516 29.6541C12.0017 29.6542 11.5085 29.45 11.1447 29.0864C10.781 28.7229 10.5766 28.2297 10.5765 27.7154C10.5764 27.2011 10.7806 26.7079 11.1441 26.3442C11.5077 25.9804 12.0009 25.776 12.5151 25.7759ZM20.2331 29.6489C20.7475 29.6489 21.2408 29.8533 21.6045 30.217C21.9683 30.5807 22.1726 31.0741 22.1726 31.5884C22.1726 32.1028 21.9683 32.5961 21.6045 32.9599C21.2408 33.3236 20.7475 33.5279 20.2331 33.5279C19.7187 33.5279 19.2254 33.3236 18.8617 32.9599C18.498 32.5961 18.2936 32.1028 18.2936 31.5884C18.2936 31.0741 18.498 30.5807 18.8617 30.217C19.2254 29.8533 19.7187 29.6489 20.2331 29.6489ZM24.1146 29.7358C24.3728 29.7303 24.6295 29.7765 24.8696 29.8716C25.1097 29.9666 25.3284 30.1087 25.5129 30.2894C25.6974 30.47 25.8439 30.6857 25.944 30.9238C26.0441 31.1618 26.0956 31.4174 26.0956 31.6757C26.0956 31.9339 26.0441 32.1895 25.944 32.4276C25.8439 32.6656 25.6974 32.8813 25.5129 33.062C25.3284 33.2427 25.1097 33.3847 24.8696 33.4798C24.6295 33.5748 24.3728 33.621 24.1146 33.6156C23.6072 33.605 23.1241 33.3959 22.769 33.0333C22.4138 32.6706 22.2149 32.1832 22.2149 31.6757C22.2149 31.1681 22.4138 30.6807 22.769 30.3181C23.1241 29.9554 23.6072 29.7464 24.1146 29.7358ZM24.1546 29.7358C23.8999 29.7356 23.6478 29.6854 23.4125 29.5878C23.1772 29.4902 22.9635 29.3473 22.7835 29.1671C22.6034 28.9869 22.4607 28.773 22.3633 28.5377C22.2659 28.3023 22.2159 28.0501 22.216 27.7954C22.2161 27.5407 22.2664 27.2885 22.364 27.0533C22.4615 26.818 22.6045 26.6043 22.7847 26.4242C22.9648 26.2442 23.1787 26.1014 23.4141 26.0041C23.6494 25.9067 23.9017 25.8567 24.1563 25.8568C24.6707 25.857 25.164 26.0616 25.5275 26.4254C25.8911 26.7893 26.0952 27.2827 26.095 27.7971C26.0948 28.3115 25.8902 28.8047 25.5263 29.1683C25.1624 29.5319 24.669 29.736 24.1546 29.7358ZM27.9953 29.6021C28.5099 29.6021 29.0035 29.8066 29.3674 30.1705C29.7312 30.5343 29.9357 31.0279 29.9357 31.5425C29.9357 32.0571 29.7312 32.5506 29.3674 32.9145C29.0035 33.2784 28.5099 33.4828 27.9953 33.4828C27.4807 33.4828 26.9872 33.2784 26.6233 32.9145C26.2594 32.5506 26.055 32.0571 26.055 31.5425C26.055 31.0279 26.2594 30.5343 26.6233 30.1705C26.9872 29.8066 27.4807 29.6021 27.9953 29.6021ZM28.0353 29.6021C27.5209 29.6021 27.0276 29.3978 26.6639 29.0341C26.3002 28.6704 26.0958 28.177 26.0958 27.6627C26.0958 27.1483 26.3002 26.6549 26.6639 26.2912C27.0276 25.9275 27.5209 25.7232 28.0353 25.7232C28.5497 25.7232 29.043 25.9275 29.4068 26.2912C29.7705 26.6549 29.9748 27.1483 29.9748 27.6627C29.9748 28.177 29.7705 28.6704 29.4068 29.0341C29.043 29.3978 28.5497 29.6021 28.0353 29.6021ZM29.9136 23.8705C29.9136 23.3559 30.118 22.8623 30.4819 22.4984C30.8457 22.1346 31.3393 21.9301 31.8539 21.9301C32.3685 21.9301 32.862 22.1346 33.2259 22.4984C33.5898 22.8623 33.7942 23.3559 33.7942 23.8705C33.7942 24.3851 33.5898 24.8786 33.2259 25.2425C32.862 25.6064 32.3685 25.8108 31.8539 25.8108C31.3393 25.8108 30.8457 25.6064 30.4819 25.2425C30.118 24.8786 29.9136 24.3851 29.9136 23.8705ZM31.8956 21.931C31.6374 21.9362 31.3808 21.8899 31.1408 21.7946C30.9007 21.6994 30.6821 21.5573 30.4978 21.3765C30.3134 21.1957 30.1669 20.9799 30.067 20.7418C29.9671 20.5037 29.9157 20.248 29.9159 19.9898C29.9161 19.7315 29.9678 19.4759 30.068 19.238C30.1682 19 30.315 18.7844 30.4996 18.6038C30.6842 18.4233 30.903 18.2814 31.1431 18.1865C31.3833 18.0916 31.64 18.0456 31.8981 18.0511C32.4056 18.0621 32.8886 18.2715 33.2435 18.6344C33.5984 18.9972 33.7969 19.4847 33.7966 19.9923C33.7963 20.4999 33.597 20.9871 33.2417 21.3495C32.8863 21.712 32.4031 21.9207 31.8956 21.931ZM31.9169 6.40398C32.4243 6.41461 32.9074 6.62366 33.2626 6.98631C33.6177 7.34896 33.8166 7.83633 33.8166 8.3439C33.8166 8.85147 33.6177 9.33884 33.2626 9.70149C32.9074 10.0641 32.4243 10.2732 31.9169 10.2838C32.1764 10.2761 32.4348 10.3206 32.6769 10.4146C32.9189 10.5086 33.1396 10.6503 33.3259 10.8311C33.5122 11.012 33.6603 11.2284 33.7614 11.4675C33.8626 11.7067 33.9147 11.9637 33.9147 12.2233C33.9147 12.483 33.8626 12.74 33.7614 12.9791C33.6603 13.2182 33.5122 13.4346 33.3259 13.6155C33.1396 13.7964 32.9189 13.938 32.6769 14.032C32.4348 14.126 32.1764 14.1705 31.9169 14.1628C31.4124 14.1479 30.9337 13.937 30.5821 13.5749C30.2306 13.2128 30.034 12.728 30.034 12.2233C30.034 11.7186 30.2306 11.2338 30.5821 10.8717C30.9337 10.5097 31.4124 10.2988 31.9169 10.2838C31.6587 10.2892 31.402 10.243 31.1619 10.148C30.9219 10.0529 30.7031 9.91089 30.5186 9.73022C30.3342 9.54955 30.1876 9.33386 30.0875 9.09581C29.9874 8.85776 29.9359 8.60213 29.9359 8.3439C29.9359 8.08567 29.9874 7.83004 30.0875 7.59199C30.1876 7.35394 30.3342 7.13825 30.5186 6.95758C30.7031 6.7769 30.9219 6.63488 31.1619 6.53981C31.402 6.44475 31.6587 6.39857 31.9169 6.40398ZM27.8345 2.46117C27.917 2.45011 27.9945 2.43649 28.077 2.43649C28.8183 2.43649 29.4565 2.85775 29.7825 3.46964C29.9272 3.74112 30.0165 4.04749 30.0165 4.37598C30.0165 4.89037 29.8122 5.38369 29.4485 5.74741C29.0847 6.11114 28.5914 6.31548 28.077 6.31548C27.5626 6.31548 27.0693 6.11114 26.7056 5.74741C26.3419 5.38369 26.1375 4.89037 26.1375 4.37598C26.1382 3.90477 26.3111 3.45004 26.6236 3.09739C26.9361 2.74473 27.3668 2.51846 27.8345 2.46117ZM24.1972 2.57095C24.4554 2.56549 24.712 2.61161 24.9522 2.70662C25.1923 2.80163 25.411 2.94361 25.5955 3.12424C25.7801 3.30488 25.9267 3.52053 26.0268 3.75856C26.1269 3.99659 26.1785 4.25221 26.1786 4.51044C26.1787 4.76867 26.1272 5.02431 26.0272 5.26238C25.9271 5.50046 25.7806 5.71617 25.5961 5.89689C25.4117 6.0776 25.193 6.21968 24.9529 6.31479C24.7129 6.4099 24.4562 6.45614 24.198 6.45079C23.6906 6.44027 23.2074 6.23132 22.8522 5.86875C22.497 5.50619 22.298 5.01886 22.2979 4.51129C22.2978 4.00371 22.4966 3.5163 22.8516 3.15358C23.2067 2.79085 23.6897 2.58169 24.1972 2.57095ZM20.3174 2.48245C20.5769 2.47476 20.8353 2.51924 21.0774 2.61325C21.3194 2.70725 21.5401 2.84888 21.7264 3.02974C21.9127 3.2106 22.0608 3.42701 22.1619 3.66615C22.2631 3.90529 22.3152 4.16229 22.3152 4.42194C22.3152 4.68159 22.2631 4.93859 22.1619 5.17773C22.0608 5.41687 21.9127 5.63328 21.7264 5.81414C21.5401 5.99499 21.3194 6.13662 21.0774 6.23063C20.8353 6.32464 20.5769 6.36912 20.3174 6.36143C19.8129 6.34649 19.3342 6.13559 18.9826 5.7735C18.6311 5.41141 18.4345 4.9266 18.4345 4.42194C18.4345 3.91728 18.6311 3.43247 18.9826 3.07038C19.3342 2.70828 19.8129 2.49739 20.3174 2.48245ZM16.4358 2.57776C16.6906 2.57771 16.943 2.62784 17.1784 2.7253C17.4138 2.82276 17.6278 2.96564 17.808 3.14577C17.9882 3.32591 18.1312 3.53978 18.2287 3.77518C18.3263 4.01057 18.3765 4.26287 18.3766 4.51768C18.3767 4.77249 18.3265 5.02481 18.2291 5.26025C18.1316 5.49568 17.9887 5.70962 17.8086 5.88983C17.6284 6.07005 17.4146 6.21302 17.1792 6.31059C16.9438 6.40815 16.6915 6.45839 16.4367 6.45845C15.9221 6.45856 15.4285 6.25424 15.0645 5.89044C14.7006 5.52663 14.496 5.03314 14.4959 4.51853C14.4958 4.00392 14.7001 3.51034 15.0639 3.14638C15.4277 2.78241 15.9212 2.57788 16.4358 2.57776ZM12.556 2.49011C12.8141 2.4847 13.0706 2.53086 13.3106 2.62588C13.5506 2.7209 13.7692 2.86286 13.9536 3.04346C14.138 3.22405 14.2845 3.43964 14.3846 3.67759C14.4846 3.91554 14.5361 4.17106 14.5361 4.42917C14.5361 4.68729 14.4846 4.94281 14.3846 5.18076C14.2845 5.41871 14.138 5.63429 13.9536 5.81489C13.7692 5.99548 13.5506 6.13745 13.3106 6.23247C13.0706 6.32749 12.8141 6.37365 12.556 6.36824C12.0488 6.35761 11.5659 6.14865 11.2109 5.78616C10.8559 5.42367 10.6571 4.93652 10.6571 4.42917C10.6571 3.92182 10.8559 3.43467 11.2109 3.07218C11.5659 2.7097 12.0488 2.50073 12.556 2.49011ZM12.5151 6.36994C13.0296 6.36994 13.5231 6.57432 13.8869 6.93813C14.2507 7.30193 14.4551 7.79536 14.4551 8.30986C14.4551 8.82436 14.2507 9.31778 13.8869 9.68159C13.5231 10.0454 13.0296 10.2498 12.5151 10.2498C12.77 10.2497 13.0223 10.2999 13.2577 10.3973C13.4931 10.4948 13.7071 10.6377 13.8873 10.8178C14.0675 10.9979 14.2105 11.2118 14.308 11.4472C14.4056 11.6826 14.4559 11.9349 14.4559 12.1897C14.456 12.4445 14.4058 12.6968 14.3084 12.9323C14.2109 13.1677 14.068 13.3816 13.8879 13.5618C13.7078 13.7421 13.4939 13.885 13.2585 13.9826C13.0231 14.0802 12.7708 14.1304 12.516 14.1305C12.0014 14.1306 11.5078 13.9263 11.1438 13.5624C10.9636 13.3823 10.8207 13.1684 10.7231 12.933C10.6255 12.6977 10.5753 12.4454 10.5752 12.1905C10.5752 11.9357 10.6253 11.6834 10.7228 11.448C10.8202 11.2125 10.9631 10.9986 11.1432 10.8184C11.507 10.4544 12.0005 10.2499 12.5151 10.2498C12.0077 10.2391 11.5246 10.0301 11.1695 9.66745C10.8143 9.3048 10.6154 8.81743 10.6154 8.30986C10.6154 7.80228 10.8143 7.31492 11.1695 6.95227C11.5246 6.58962 12.0077 6.38057 12.5151 6.36994ZM8.63446 10.3851C8.37965 10.3851 8.12732 10.335 7.89189 10.2376C7.65645 10.1401 7.44252 9.99721 7.2623 9.81708C7.08208 9.63694 6.93911 9.42307 6.84155 9.18768C6.74399 8.95228 6.69374 8.69998 6.69369 8.44517C6.69363 8.19036 6.74376 7.93804 6.84122 7.7026C6.93868 7.46717 7.08156 7.25323 7.2617 7.07302C7.44184 6.8928 7.65571 6.74983 7.8911 6.65227C8.12649 6.5547 8.3788 6.50446 8.63361 6.5044C9.14822 6.50429 9.64179 6.70861 10.0058 7.07242C10.3697 7.43622 10.5743 7.92971 10.5744 8.44432C10.5745 8.95893 10.3702 9.45251 10.0064 9.81647C9.64256 10.1804 9.14907 10.385 8.63446 10.3851C8.88927 10.3852 9.14156 10.4355 9.37693 10.5331C9.6123 10.6307 9.82614 10.7737 10.0062 10.954C10.1863 11.1343 10.3292 11.3482 10.4266 11.5837C10.524 11.8191 10.5741 12.0715 10.5739 12.3263C10.5738 12.5811 10.5235 12.8334 10.4259 13.0688C10.3283 13.3041 10.1853 13.518 10.005 13.6981C9.82478 13.8782 9.61081 14.021 9.37535 14.1184C9.1399 14.2158 8.88756 14.2659 8.63275 14.2658C8.11814 14.2655 7.6247 14.0609 7.26097 13.6969C6.89725 13.3328 6.69304 12.8392 6.69326 12.3246C6.69349 11.81 6.89813 11.3165 7.26218 10.9528C7.62622 10.5891 8.11984 10.3849 8.63446 10.3851ZM2.77258 16.1185C2.77258 15.6039 2.97701 15.1103 3.34089 14.7464C3.70478 14.3825 4.19831 14.1781 4.71292 14.1781C5.22753 14.1781 5.72107 14.3825 6.08495 14.7464C6.44884 15.1103 6.65326 15.6039 6.65326 16.1185C6.65326 16.6331 6.44884 17.1266 6.08495 17.4905C5.72107 17.8544 5.22753 18.0588 4.71292 18.0588C4.19831 18.0588 3.70478 17.8544 3.34089 17.4905C2.97701 17.1266 2.77258 16.6331 2.77258 16.1185ZM2.75215 23.8832C2.75193 23.3689 2.95605 22.8754 3.31962 22.5116C3.68318 22.1477 4.17641 21.9431 4.69079 21.9429C5.20518 21.9427 5.69859 22.1468 6.06247 22.5104C6.42636 22.8739 6.63091 23.3671 6.63114 23.8815C6.63125 24.1362 6.58119 24.3885 6.48383 24.6238C6.38646 24.8592 6.24369 25.073 6.06367 25.2532C5.88366 25.4334 5.66991 25.5763 5.43464 25.6739C5.19938 25.7715 4.94719 25.8218 4.6925 25.8219C4.4378 25.822 4.18557 25.7719 3.95022 25.6746C3.71487 25.5772 3.501 25.4344 3.32082 25.2544C3.14064 25.0744 2.99769 24.8607 2.90011 24.6254C2.80254 24.3901 2.75226 24.1379 2.75215 23.8832ZM4.75377 29.7026C4.23939 29.7026 3.74607 29.4982 3.38234 29.1345C3.01862 28.7708 2.81428 28.2775 2.81428 27.7631C2.81428 27.2487 3.01862 26.7554 3.38234 26.3916C3.74607 26.0279 4.23939 25.8236 4.75377 25.8236C5.26816 25.8236 5.76147 26.0279 6.1252 26.3916C6.48892 26.7554 6.69326 27.2487 6.69326 27.7631C6.69326 28.2775 6.48892 28.7708 6.1252 29.1345C5.76147 29.4982 5.26816 29.7026 4.75377 29.7026ZM8.59446 33.6701C8.33965 33.6702 8.08731 33.6201 7.85186 33.5227C7.6164 33.4253 7.40243 33.2824 7.22218 33.1023C7.04192 32.9222 6.8989 32.7084 6.80129 32.473C6.70367 32.2377 6.65338 31.9854 6.65326 31.7306C6.65315 31.4758 6.70323 31.2234 6.80064 30.988C6.89805 30.7525 7.04088 30.5385 7.22097 30.3583C7.40107 30.178 7.61491 30.035 7.85028 29.9374C8.08565 29.8398 8.33795 29.7895 8.59276 29.7894C9.10737 29.7891 9.60099 29.9934 9.96503 30.3571C10.3291 30.7208 10.5337 31.2143 10.5339 31.7289C10.5342 32.2435 10.33 32.7371 9.96624 33.1011C9.60251 33.4652 9.10907 33.6698 8.59446 33.6701ZM10.5331 31.5969C10.5276 31.3388 10.5738 31.0821 10.6688 30.842C10.7638 30.6019 10.9058 30.3831 11.0864 30.1986C11.267 30.0141 11.4827 29.8674 11.7207 29.7673C11.9587 29.6672 12.2144 29.6156 12.4726 29.6156C12.7308 29.6155 12.9865 29.667 13.2245 29.767C13.4626 29.867 13.6783 30.0135 13.859 30.198C14.0397 30.3825 14.1818 30.6011 14.2769 30.8412C14.372 31.0813 14.4183 31.3379 14.4129 31.5961C14.4024 32.1036 14.1935 32.5867 13.8309 32.9419C13.4683 33.2971 12.981 33.4961 12.4734 33.4962C11.9659 33.4963 11.4784 33.2976 11.1157 32.9425C10.753 32.5875 10.5438 32.1044 10.5331 31.5969ZM12.4956 37.4214C11.9812 37.4214 11.4879 37.217 11.1241 36.8533C10.7604 36.4896 10.5561 35.9963 10.5561 35.4819C10.5561 34.9675 10.7604 34.4742 11.1241 34.1105C11.4879 33.7467 11.9812 33.5424 12.4956 33.5424C13.01 33.5424 13.5033 33.7467 13.867 34.1105C14.2307 34.4742 14.4351 34.9675 14.4351 35.4819C14.4351 35.9963 14.2307 36.4896 13.867 36.8533C13.5033 37.217 13.01 37.4214 12.4956 37.4214ZM16.3746 37.509C15.8602 37.509 15.3668 37.3047 15.0031 36.941C14.6394 36.5773 14.4351 36.0839 14.4351 35.5695C14.4351 35.0552 14.6394 34.5618 15.0031 34.1981C15.3668 33.8344 15.8602 33.6301 16.3746 33.6301C16.8889 33.6301 17.3823 33.8344 17.746 34.1981C18.1097 34.5618 18.314 35.0552 18.314 35.5695C18.314 36.0839 18.1097 36.5773 17.746 36.941C17.3823 37.3047 16.8889 37.509 16.3746 37.509ZM20.2552 37.4137C19.9972 37.4191 19.7406 37.373 19.5006 37.278C19.2607 37.1829 19.042 37.041 18.8576 36.8604C18.6732 36.6798 18.5267 36.4642 18.4267 36.2262C18.3266 35.9883 18.2751 35.7328 18.2751 35.4747C18.2751 35.2165 18.3266 34.961 18.4267 34.7231C18.5267 34.4851 18.6732 34.2695 18.8576 34.0889C19.042 33.9083 19.2607 33.7664 19.5006 33.6714C19.7406 33.5763 19.9972 33.5302 20.2552 33.5356C20.7625 33.5462 21.2454 33.7552 21.6003 34.1177C21.9553 34.4802 22.1541 34.9673 22.1541 35.4747C22.1541 35.982 21.9553 36.4692 21.6003 36.8316C21.2454 37.1941 20.7625 37.4031 20.2552 37.4137ZM24.1342 37.5014C23.6198 37.5014 23.1265 37.297 22.7628 36.9333C22.3991 36.5696 22.1947 36.0763 22.1947 35.5619C22.1947 35.0475 22.3991 34.5542 22.7628 34.1905C23.1265 33.8267 23.6198 33.6224 24.1342 33.6224C24.6486 33.6224 25.1419 33.8267 25.5057 34.1905C25.8694 34.5542 26.0737 35.0475 26.0737 35.5619C26.0737 36.0763 25.8694 36.5696 25.5057 36.9333C25.1419 37.297 24.6486 37.5014 24.1342 37.5014ZM29.4446 36.7312C29.0659 36.9457 28.6821 37.1508 28.2906 37.3397C28.2013 37.3525 28.1102 37.3669 28.0183 37.3669C27.6348 37.3669 27.2598 37.2532 26.9409 37.0401C26.6219 36.827 26.3734 36.5242 26.2265 36.1698C26.0797 35.8155 26.0413 35.4256 26.116 35.0494C26.1908 34.6732 26.3754 34.3276 26.6466 34.0563C26.9177 33.785 27.2632 33.6002 27.6394 33.5253C28.0156 33.4504 28.4055 33.4887 28.7599 33.6353C29.1143 33.782 29.4173 34.0304 29.6305 34.3493C29.8437 34.6681 29.9576 35.043 29.9578 35.4266C29.9545 35.91 29.7716 36.375 29.4446 36.7312ZM31.8752 33.5705C31.6204 33.5705 31.368 33.5204 31.1326 33.4229C30.8972 33.3255 30.6832 33.1826 30.503 33.0025C30.3228 32.8223 30.1798 32.6085 30.0823 32.3731C29.9847 32.1377 29.9345 31.8854 29.9344 31.6306C29.9343 31.3758 29.9845 31.1234 30.0819 30.888C30.1794 30.6526 30.3223 30.4386 30.5024 30.2584C30.6826 30.0782 30.8964 29.9352 31.1318 29.8377C31.3672 29.7401 31.6195 29.6899 31.8743 29.6898C32.3889 29.6897 32.8825 29.894 33.2465 30.2578C33.6104 30.6216 33.815 31.1151 33.8151 31.6297C33.8152 32.1443 33.6109 32.6379 33.2471 33.0019C32.8833 33.3658 32.3898 33.5704 31.8752 33.5705ZM31.9152 29.6906C31.6556 29.6982 31.3972 29.6536 31.1552 29.5595C30.9132 29.4654 30.6926 29.3237 30.5064 29.1427C30.3202 28.9618 30.1722 28.7453 30.0711 28.5061C29.9701 28.267 29.9181 28.0099 29.9182 27.7503C29.9183 27.4906 29.9706 27.2337 30.0718 26.9946C30.173 26.7555 30.3212 26.5391 30.5076 26.3583C30.694 26.1776 30.9147 26.036 31.1568 25.9421C31.3989 25.8482 31.6573 25.8039 31.9169 25.8117C32.4213 25.8268 32.9 26.0379 33.2514 26.4002C33.6027 26.7624 33.7991 27.2473 33.7989 27.752C33.7987 28.2566 33.6019 28.7414 33.2502 29.1033C32.8985 29.4652 32.4196 29.6759 31.9152 29.6906ZM37.7073 27.478C37.7234 27.575 37.7362 27.6729 37.7362 27.7758C37.7362 28.5145 37.32 29.1485 36.7133 29.4762C36.4409 29.6251 36.1303 29.7162 35.7976 29.7162C34.7253 29.7162 33.8589 28.8473 33.8589 27.7758C33.8589 26.7044 34.727 25.8372 35.7976 25.8372C36.2595 25.837 36.7062 26.0025 37.0566 26.3035C37.407 26.6046 37.6378 27.0213 37.7073 27.478ZM35.7346 25.8346C35.4798 25.8346 35.2275 25.7843 34.9921 25.6868C34.7567 25.5892 34.5428 25.4462 34.3627 25.266C34.1825 25.0858 34.0397 24.8719 33.9422 24.6364C33.8447 24.401 33.7946 24.1487 33.7947 23.8939C33.7947 23.6391 33.845 23.3868 33.9425 23.1514C34.0401 22.916 34.1831 22.7021 34.3633 22.522C34.5435 22.3418 34.7574 22.199 34.9929 22.1015C35.2283 22.004 35.4806 21.9539 35.7354 21.954C36.25 21.9541 36.7435 22.1586 37.1073 22.5226C37.4711 22.8865 37.6755 23.3801 37.6754 23.8947C37.6752 24.4093 37.4707 24.9028 37.1067 25.2666C36.7428 25.6304 36.2492 25.8348 35.7346 25.8346ZM35.7763 21.9557C35.2618 21.9557 34.7684 21.7513 34.4046 21.3875C34.0407 21.0237 33.8364 20.5302 33.8364 20.0157C33.8364 19.5012 34.0407 19.0078 34.4046 18.644C34.7684 18.2802 35.2618 18.0758 35.7763 18.0758C36.2908 18.0758 36.7842 18.2802 37.148 18.644C37.5118 19.0078 37.7162 19.5012 37.7162 20.0157C37.7162 20.5302 37.5118 21.0237 37.148 21.3875C36.7842 21.7513 36.2908 21.9557 35.7763 21.9557Z" fill="#998675"/>
</g>
<defs>
<clipPath id="clip0_72_1503">
<rect width="40" height="40" fill="white"/>
</clipPath>
</defs>
</svg>
