<svg width="40" height="40" viewBox="0 0 40 40" fill="none" xmlns="http://www.w3.org/2000/svg">
<g clip-path="url(#clip0_72_1509)">
<path d="M38.75 0.625H1.25C1.08424 0.625 0.925268 0.690848 0.808058 0.808058C0.690848 0.925268 0.625 1.08424 0.625 1.25V38.75C0.625 38.9158 0.690848 39.0747 0.808058 39.1919C0.925268 39.3092 1.08424 39.375 1.25 39.375H38.75C38.9158 39.375 39.0747 39.3092 39.1919 39.1919C39.3092 39.0747 39.375 38.9158 39.375 38.75V1.25C39.375 1.08424 39.3092 0.925268 39.1919 0.808058C39.0747 0.690848 38.9158 0.625 38.75 0.625ZM30.9912 19.375H27.7588L20.625 12.2413V9.00875L27.7588 1.875H30.9912L38.125 9.00875V12.2413L30.9912 19.375ZM20 26.6162L13.3837 20L20 13.3837L26.6162 20L20 26.6162ZM20 7.86625L14.0087 1.875H25.9912L20 7.86625ZM19.375 9.00875V12.2413L12.2413 19.375H9.00875L1.875 12.2413V9.00875L9.00875 1.875H12.2413L19.375 9.00875ZM7.86625 20L1.875 25.9912V14.0087L7.86625 20ZM1.875 27.7588L9.00875 20.625H12.2413L19.375 27.7588V30.9912L12.2413 38.125H9.00875L1.875 30.9912V27.7588ZM20 32.1338L25.9912 38.125H14.0087L20 32.1338ZM20.625 30.9912V27.7588L27.7588 20.625H30.9912L38.125 27.7588V30.9912L30.9912 38.125H27.7588L20.625 30.9912ZM32.1338 20L38.125 14.0087V25.9912L32.1338 20ZM38.125 7.24125L32.7588 1.875H38.125V7.24125ZM7.24125 1.875L1.875 7.24125V1.875H7.24125ZM1.875 32.7588L7.24125 38.125H1.875V32.7588ZM32.7588 38.125L38.125 32.7588V38.125H32.7588Z" fill="#998675"/>
</g>
<defs>
<clipPath id="clip0_72_1509">
<rect width="40" height="40" fill="white"/>
</clipPath>
</defs>
</svg>
