<svg width="90" height="90" viewBox="0 0 90 90" fill="none" xmlns="http://www.w3.org/2000/svg">
<path d="M29.8332 59.0691C29.8332 58.782 29.7229 58.5065 29.5266 58.3035C29.3303 58.1004 29.0641 57.9864 28.7865 57.9864C28.5089 57.9864 28.2427 58.1004 28.0464 58.3035C27.8501 58.5065 27.7398 58.782 27.7398 59.0691V59.7036L27.3065 60.1519C27.2093 60.2524 27.1323 60.3718 27.0797 60.5031C27.0271 60.6345 27 60.7752 27 60.9174C27 61.0596 27.0271 61.2003 27.0797 61.3317C27.1323 61.463 27.2093 61.5824 27.3065 61.6829C27.4037 61.7834 27.5191 61.8632 27.646 61.9176C27.773 61.972 27.9091 62 28.0465 62C28.1839 62 28.32 61.972 28.447 61.9176C28.574 61.8632 28.6893 61.7834 28.7865 61.6829L29.2198 61.2346H29.8332C30.1108 61.2346 30.377 61.1206 30.5733 60.9175C30.7696 60.7145 30.8799 60.4391 30.8799 60.1519C30.8799 59.8647 30.7696 59.5893 30.5733 59.3863C30.377 59.1832 30.1108 59.0691 29.8332 59.0691ZM36.1132 59.0691H34.0199C33.7423 59.0691 33.4761 59.1832 33.2798 59.3863C33.0835 59.5893 32.9732 59.8647 32.9732 60.1519C32.9732 60.4391 33.0835 60.7145 33.2798 60.9175C33.4761 61.1206 33.7423 61.2346 34.0199 61.2346H36.1132C36.3908 61.2346 36.657 61.1206 36.8533 60.9175C37.0496 60.7145 37.1599 60.4391 37.1599 60.1519C37.1599 59.8647 37.0496 59.5893 36.8533 59.3863C36.657 59.1832 36.3908 59.0691 36.1132 59.0691ZM42.3933 59.0691H40.2999C40.0223 59.0691 39.7561 59.1832 39.5598 59.3863C39.3635 59.5893 39.2532 59.8647 39.2532 60.1519C39.2532 60.4391 39.3635 60.7145 39.5598 60.9175C39.7561 61.1206 40.0223 61.2346 40.2999 61.2346H42.3933C42.6709 61.2346 42.9371 61.1206 43.1334 60.9175C43.3297 60.7145 43.4399 60.4391 43.4399 60.1519C43.4399 59.8647 43.3297 59.5893 43.1334 59.3863C42.9371 59.1832 42.6709 59.0691 42.3933 59.0691ZM54.9533 59.0691H52.86C52.5824 59.0691 52.3162 59.1832 52.1199 59.3863C51.9236 59.5893 51.8133 59.8647 51.8133 60.1519C51.8133 60.4391 51.9236 60.7145 52.1199 60.9175C52.3162 61.1206 52.5824 61.2346 52.86 61.2346H54.9533C55.2309 61.2346 55.4972 61.1206 55.6934 60.9175C55.8897 60.7145 56 60.4391 56 60.1519C56 59.8647 55.8897 59.5893 55.6934 59.3863C55.4972 59.1832 55.2309 59.0691 54.9533 59.0691ZM48.6733 59.0691H46.5799C46.3024 59.0691 46.0361 59.1832 45.8398 59.3863C45.6435 59.5893 45.5333 59.8647 45.5333 60.1519C45.5333 60.4391 45.6435 60.7145 45.8398 60.9175C46.0361 61.1206 46.3024 61.2346 46.5799 61.2346H48.6733C48.9509 61.2346 49.2171 61.1206 49.4134 60.9175C49.6097 60.7145 49.72 60.4391 49.72 60.1519C49.72 59.8647 49.6097 59.5893 49.4134 59.3863C49.2171 59.1832 48.9509 59.0691 48.6733 59.0691ZM28.7865 36.3311C29.0641 36.3311 29.3303 36.217 29.5266 36.0139C29.7229 35.8109 29.8332 35.5355 29.8332 35.2483V33.0828C29.8332 32.7956 29.7229 32.5202 29.5266 32.3171C29.3303 32.1141 29.0641 32 28.7865 32C28.5089 32 28.2427 32.1141 28.0464 32.3171C27.8501 32.5202 27.7398 32.7956 27.7398 33.0828V35.2483C27.7398 35.5355 27.8501 35.8109 28.0464 36.0139C28.2427 36.217 28.5089 36.3311 28.7865 36.3311ZM28.7865 49.3242C29.0641 49.3242 29.3303 49.2102 29.5266 49.0071C29.7229 48.804 29.8332 48.5286 29.8332 48.2415V46.0759C29.8332 45.7888 29.7229 45.5134 29.5266 45.3103C29.3303 45.1073 29.0641 44.9932 28.7865 44.9932C28.5089 44.9932 28.2427 45.1073 28.0464 45.3103C27.8501 45.5134 27.7398 45.7888 27.7398 46.0759V48.2415C27.7398 48.5286 27.8501 48.804 28.0464 49.0071C28.2427 49.2102 28.5089 49.3242 28.7865 49.3242ZM28.7865 42.8276C29.0641 42.8276 29.3303 42.7136 29.5266 42.5105C29.7229 42.3075 29.8332 42.0321 29.8332 41.7449V39.5794C29.8332 39.2922 29.7229 39.0168 29.5266 38.8137C29.3303 38.6107 29.0641 38.4966 28.7865 38.4966C28.5089 38.4966 28.2427 38.6107 28.0464 38.8137C27.8501 39.0168 27.7398 39.2922 27.7398 39.5794V41.7449C27.7398 42.0321 27.8501 42.3075 28.0464 42.5105C28.2427 42.7136 28.5089 42.8276 28.7865 42.8276ZM28.7865 55.8208C29.0641 55.8208 29.3303 55.7067 29.5266 55.5037C29.7229 55.3006 29.8332 55.0252 29.8332 54.7381V52.5725C29.8332 52.2854 29.7229 52.01 29.5266 51.8069C29.3303 51.6038 29.0641 51.4898 28.7865 51.4898C28.5089 51.4898 28.2427 51.6038 28.0464 51.8069C27.8501 52.01 27.7398 52.2854 27.7398 52.5725V54.7381C27.7398 55.0252 27.8501 55.3006 28.0464 55.5037C28.2427 55.7067 28.5089 55.8208 28.7865 55.8208Z" fill="#DBD1C8"/>
<path d="M76 14.05C76 14.0332 75.9937 14.0175 75.9926 14.0007C75.9905 13.9492 75.98 13.8988 75.9695 13.8474C75.959 13.7959 75.9496 13.7445 75.9317 13.6951C75.9265 13.6794 75.9265 13.6626 75.9202 13.6468L75.9181 13.6437C75.9149 13.6353 75.9076 13.6279 75.9034 13.6195C75.8939 13.5985 75.8792 13.5807 75.8677 13.5607C75.827 13.4802 75.7754 13.4057 75.7144 13.3392C75.6965 13.3192 75.6776 13.3014 75.6587 13.2835C75.5926 13.222 75.518 13.1704 75.4372 13.1302C75.4172 13.1197 75.3994 13.105 75.3784 13.0945L75.3542 13.0798L75.3511 13.0777C75.3353 13.0714 75.3185 13.0714 75.3028 13.0662C75.2534 13.0483 75.203 13.0389 75.1506 13.0284C75.0991 13.0179 75.0487 13.0074 74.9972 13.0053C74.9815 13.0063 74.9668 13 74.95 13H28.75C28.6119 12.9995 28.4752 13.0265 28.3477 13.0795C28.2202 13.1325 28.1046 13.2104 28.0076 13.3087L13.3076 28.0077L13.3066 28.0098C13.2221 28.0973 13.1535 28.1989 13.1039 28.3101C13.0892 28.3416 13.0808 28.3752 13.0693 28.4088C13.0377 28.4981 13.019 28.5914 13.0137 28.686C13.0115 28.708 13 28.7269 13 28.75V74.95C13.0008 75.2282 13.1117 75.4948 13.3085 75.6915C13.5052 75.8883 13.7718 75.9992 14.05 76H60.25C60.5284 75.9996 60.7953 75.889 60.9923 75.6923L75.6913 60.9934C75.7893 60.896 75.867 60.7801 75.92 60.6526C75.9729 60.525 76.0001 60.3882 76 60.25V14.05ZM73.9 59.2H61.3V29.1847L73.9 16.5847V59.2ZM59.2 73.9H15.7825C15.7342 73.7414 15.6596 73.5902 15.5347 73.4653C15.4097 73.3403 15.2585 73.2658 15.1 73.2175V29.8H27.7C27.7 30.0785 27.8106 30.3456 28.0075 30.5425C28.2045 30.7394 28.4715 30.85 28.75 30.85C29.0285 30.85 29.2955 30.7394 29.4925 30.5425C29.6894 30.3456 29.8 30.0785 29.8 29.8H59.2V59.2C58.9215 59.2 58.6544 59.3106 58.4575 59.5075C58.2606 59.7045 58.15 59.9715 58.15 60.25C58.15 60.5285 58.2606 60.7956 58.4575 60.9925C58.6544 61.1894 58.9215 61.3 59.2 61.3V73.9ZM72.4153 15.1L59.8153 27.7H29.8V15.1H72.4153ZM27.7 16.5847V27.7H16.5847L27.7 16.5847ZM61.3 61.3H72.4153L61.3 72.4153V61.3Z" fill="#DBD1C8"/>
<path d="M24.147 63.2824L22.4397 64.8008C22.339 64.8904 22.259 64.9967 22.2045 65.1138C22.15 65.2308 22.1219 65.3562 22.1219 65.4829C22.1219 65.6096 22.15 65.735 22.2045 65.852C22.259 65.9691 22.339 66.0754 22.4397 66.165C22.5405 66.2545 22.6601 66.3256 22.7918 66.3741C22.9235 66.4225 23.0646 66.4475 23.2071 66.4475C23.3496 66.4475 23.4907 66.4225 23.6224 66.3741C23.7541 66.3256 23.8737 66.2545 23.9745 66.165L25.6818 64.6475C25.8854 64.4666 25.9999 64.2212 26 63.9653C26.0001 63.7093 25.8858 63.4639 25.6823 63.2829C25.4788 63.1018 25.2027 63.0001 24.9148 63C24.6269 62.9999 24.3507 63.1015 24.147 63.2824ZM19.0251 67.8359L17.3179 69.3534C17.2171 69.4429 17.1371 69.5493 17.0826 69.6663C17.0281 69.7833 17 69.9088 17 70.0354C17 70.1621 17.0281 70.2875 17.0826 70.4046C17.1371 70.5216 17.2171 70.6279 17.3179 70.7175C17.4186 70.8071 17.5383 70.8781 17.6699 70.9266C17.8016 70.9751 17.9427 71 18.0852 71C18.2277 71 18.3688 70.9751 18.5005 70.9266C18.6322 70.8781 18.7518 70.8071 18.8526 70.7175L20.5599 69.2C20.6606 69.1104 20.7406 69.0041 20.7951 68.887C20.8497 68.77 20.8777 68.6446 20.8777 68.5179C20.8777 68.3913 20.8497 68.2658 20.7951 68.1488C20.7406 68.0318 20.6606 67.9254 20.5599 67.8359C20.4591 67.7463 20.3395 67.6752 20.2078 67.6268C20.0761 67.5783 19.935 67.5533 19.7925 67.5533C19.65 67.5533 19.5089 67.5783 19.3772 67.6268C19.2456 67.6752 19.1259 67.7463 19.0251 67.8359Z" fill="#DBD1C8"/>
</svg>
