<svg width="90" height="90" viewBox="0 0 90 90" fill="none" xmlns="http://www.w3.org/2000/svg">
<path d="M33.495 56C27.708 56 23 48.4011 23 39.062C23.0005 38.7819 23.1063 38.5135 23.2943 38.3155C23.4822 38.1174 23.737 38.0059 24.0028 38.0054H24.0058C24.8702 38.0054 25.5932 37.3239 25.6904 36.4194L25.7055 36.2715C25.897 34.4658 27.1294 32.9813 28.7709 32.5788C31.9297 31.8011 35.0974 31.8075 38.1819 32.5957C39.7483 32.994 40.9295 34.3581 41.1922 36.0718L41.2594 36.5071C41.3228 36.926 41.5262 37.3072 41.8329 37.582C42.1397 37.8567 42.5295 38.0069 42.9321 38.0054C43.4856 38.0054 44 38.4777 44 39.062C44 48.4021 39.287 56 33.495 56ZM25.0216 39.9696C25.2903 47.7238 28.9885 53.8868 33.495 53.8868C38.0044 53.8868 41.7057 47.727 41.9784 39.9791C41.2884 39.789 40.6658 39.3915 40.1864 38.8351C39.7071 38.2786 39.3918 37.5873 39.279 36.8452L39.2128 36.4089C39.0814 35.5509 38.4767 34.8451 37.7096 34.6486C34.934 33.9407 32.0791 33.9365 29.2262 34.6359C28.4099 34.8367 27.7962 35.589 27.699 36.5082L27.6829 36.6561C27.6016 37.4245 27.3049 38.15 26.8307 38.7401C26.3566 39.3302 25.7264 39.7582 25.0206 39.9696H25.0216Z" fill="#DBD1C8"/>
<path d="M23.7915 39.7117C23.5571 39.7115 23.3299 39.6294 23.1476 39.4791C22.9653 39.3288 22.8391 39.1193 22.7898 38.8855L22.0721 35.4751C22.0643 35.4399 22.0585 35.4043 22.0547 35.3684C21.744 32.4631 22.391 30.0201 23.9792 28.1094C26.9289 24.5588 32.2061 24.0861 33.2345 24.0286C36.0807 23.8236 38.3845 24.7272 39.6979 26.5542L40.313 27.4097C41.8028 27.4097 43.1972 28.0822 44.1435 29.2535C45.0899 30.4248 45.4702 31.9496 45.1862 33.4389L44.1527 38.8646C44.1299 39.002 44.0804 39.1335 44.0071 39.2511C43.9338 39.3688 43.8382 39.4703 43.7258 39.5497C43.6135 39.6291 43.4867 39.6848 43.3529 39.7135C43.2192 39.7422 43.0812 39.7434 42.947 39.7169C42.8128 39.6904 42.6851 39.6368 42.5715 39.5592C42.458 39.4817 42.3607 39.3818 42.2855 39.2653C42.2104 39.1489 42.1588 39.0183 42.1338 38.8812C42.1088 38.7442 42.111 38.6034 42.1401 38.4672L43.1736 33.0394C43.2561 32.6094 43.244 32.166 43.1382 31.7414C43.0323 31.3167 42.8354 30.9213 42.5615 30.5838C42.2889 30.2451 41.946 29.9724 41.5575 29.7854C41.169 29.5984 40.7447 29.5017 40.3151 29.5024C39.662 29.5024 39.0437 29.1813 38.6593 28.6448L38.0441 27.7914C36.8517 26.1328 34.596 26.024 33.3606 26.116C32.4686 26.1662 27.9511 26.5657 25.5438 29.4627C24.3432 30.9059 23.8531 32.7999 24.0879 35.0892L24.7953 38.4462C24.8275 38.5989 24.8257 38.7571 24.7901 38.909C24.7545 39.0609 24.686 39.2027 24.5896 39.3241C24.4933 39.4455 24.3715 39.5433 24.2332 39.6103C24.0949 39.6774 23.9447 39.712 23.7915 39.7117ZM54.9747 79H12.0253C11.7534 79 11.4926 78.8898 11.3003 78.6937C11.1081 78.4976 11 78.2316 11 77.9542V68.0921C10.9945 66.4846 11.4672 64.9131 12.3558 63.5855C13.2444 62.2578 14.507 61.2365 15.9768 60.6563L22.8483 57.9152C23.9328 57.4863 24.8644 56.7323 25.5204 55.7525C26.1764 54.7728 26.5259 53.6132 26.5229 52.4268V51.0766C26.5229 50.7992 26.6309 50.5332 26.8232 50.3371C27.0155 50.141 27.2763 50.0308 27.5482 50.0308C27.8201 50.0308 28.0809 50.141 28.2732 50.3371C28.4655 50.5332 28.5735 50.7992 28.5735 51.0766V52.4257C28.5776 54.0329 28.1043 55.6037 27.2159 56.9311C26.3275 58.2584 25.0657 59.2801 23.5967 59.8615L16.7253 62.6026C15.6401 63.0308 14.7078 63.7848 14.0517 64.765C13.3956 65.7451 13.0465 66.9053 13.0506 68.0921V76.9084H53.9494V68.0921C53.9529 66.9052 53.6035 65.7452 52.9473 64.7651C52.2911 63.785 51.3588 63.031 50.2737 62.6026L43.4043 59.8636C40.3797 58.6483 38.4265 55.7295 38.4265 52.4268V51.0766C38.4265 50.7992 38.5345 50.5332 38.7268 50.3371C38.9191 50.141 39.1799 50.0308 39.4518 50.0308C39.7237 50.0308 39.9845 50.141 40.1768 50.3371C40.3691 50.5332 40.4771 50.7992 40.4771 51.0766V52.4257C40.4742 53.6126 40.8239 54.7725 41.4803 55.7524C42.1367 56.7324 43.0688 57.4865 44.1538 57.9152L51.0212 60.6542C52.4913 61.2344 53.7543 62.2558 54.6433 63.5836C55.5322 64.9115 56.0053 66.4832 56 68.0911V77.9542C56 78.2316 55.8919 78.4976 55.6997 78.6937C55.5074 78.8898 55.2466 79 54.9747 79Z" fill="#DBD1C8"/>
<path d="M33.2051 61C30.4016 61 27.5908 59.9678 25.3511 57.9013C25.2492 57.8071 25.1659 57.6928 25.106 57.5648C25.0461 57.4368 25.0108 57.2977 25.0021 57.1554C24.9934 57.0131 25.0115 56.8704 25.0553 56.7354C25.0991 56.6004 25.1678 56.4759 25.2575 56.3688C25.3472 56.2617 25.456 56.1742 25.5779 56.1113C25.6998 56.0484 25.8322 56.0114 25.9677 56.0022C26.1032 55.9931 26.2391 56.0121 26.3676 56.0581C26.4961 56.1041 26.6147 56.1763 26.7167 56.2705C30.4067 59.6744 35.9734 59.6777 39.6665 56.2726L40.3534 57.0864L41 57.9339L40.9948 57.9393C38.8387 59.9199 36.0695 61.0079 33.2051 61Z" fill="#DBD1C8"/>
<path d="M31.62 79C31.3934 79 31.1731 78.9246 30.993 78.7854C30.8129 78.6462 30.6831 78.4508 30.6235 78.2295L25.0366 57.4459C25.0008 57.3134 24.9911 57.175 25.0082 57.0388C25.0252 56.9025 25.0687 56.771 25.136 56.6517C25.2034 56.5324 25.2933 56.4278 25.4006 56.3438C25.508 56.2598 25.6306 56.198 25.7616 56.162C25.8925 56.1255 26.0292 56.1155 26.1639 56.1326C26.2986 56.1498 26.4286 56.1937 26.5465 56.2619C26.6643 56.3301 26.7677 56.4212 26.8507 56.5301C26.9336 56.6389 26.9944 56.7632 27.0297 56.896L32.6166 77.6796C32.6586 77.8348 32.6646 77.9977 32.6342 78.1557C32.6037 78.3136 32.5376 78.4623 32.4411 78.5901C32.3445 78.7179 32.2201 78.8214 32.0775 78.8925C31.9349 78.9636 31.778 79.0004 31.619 79H31.62ZM35.6372 79C35.4787 79 35.3222 78.9631 35.18 78.8921C35.0378 78.8211 34.9136 78.718 34.8171 78.5906C34.7205 78.4633 34.6542 78.3152 34.6233 78.1577C34.5923 78.0003 34.5976 77.8378 34.6386 77.6827L40.1852 56.8991C40.2639 56.6399 40.4389 56.4217 40.6733 56.2906C40.9078 56.1594 41.1833 56.1255 41.442 56.196C41.7006 56.2665 41.9222 56.4358 42.0599 56.6684C42.1976 56.901 42.2408 57.1786 42.1804 57.4427L36.6348 78.2264C36.5758 78.4483 36.4462 78.6443 36.266 78.7842C36.0859 78.924 35.8642 78.9999 35.6372 79ZM55.15 37.7788C54.69 37.7782 54.2393 37.6475 53.8488 37.4014C53.4895 37.1779 53.1929 36.8646 52.9877 36.4917C52.7824 36.1188 52.6753 35.6987 52.6767 35.2718V31.6618H51.4374C49.7294 31.6618 48.3393 30.2546 48.3393 28.5255V13.1364C48.3393 11.4072 49.7294 10 51.4374 10H75.9019C77.61 10 79 11.4072 79 13.1364V28.5255C79 30.2557 77.61 31.6618 75.9019 31.6618H67.8924L56.2529 37.5164C55.9018 37.692 55.5259 37.7788 55.15 37.7788ZM51.4385 12.0909C51.1646 12.0909 50.9019 12.2011 50.7082 12.3971C50.5146 12.5932 50.4058 12.8591 50.4058 13.1364V28.5255C50.4058 28.8027 50.5146 29.0686 50.7082 29.2647C50.9019 29.4608 51.1646 29.5709 51.4385 29.5709H53.7093C53.9832 29.5709 54.2459 29.6811 54.4396 29.8771C54.6332 30.0732 54.742 30.3391 54.742 30.6164V35.2718C54.742 35.4725 54.8639 35.5791 54.9352 35.6241C54.9942 35.6615 55.0619 35.6829 55.1315 35.6862C55.2012 35.6895 55.2705 35.6746 55.3327 35.6429L67.1901 29.6807C67.3347 29.6096 67.4906 29.572 67.6507 29.572H75.9019C76.1758 29.572 76.4385 29.4618 76.6321 29.2657C76.8258 29.0697 76.9346 28.8038 76.9346 28.5265V13.1364C76.9346 12.8591 76.8258 12.5932 76.6321 12.3971C76.4385 12.2011 76.1758 12.0909 75.9019 12.0909H51.4385Z" fill="#DBD1C8"/>
<path d="M67.9157 27H60.0843C59.8149 27 59.5566 26.8919 59.3661 26.6995C59.1756 26.507 59.0686 26.246 59.0686 25.9739C59.0686 25.7017 59.1756 25.4407 59.3661 25.2483C59.5566 25.0559 59.8149 24.9478 60.0843 24.9478H67.9157C68.1851 24.9478 68.4434 25.0559 68.6339 25.2483C68.8244 25.4407 68.9314 25.7017 68.9314 25.9739C68.9314 26.246 68.8244 26.507 68.6339 26.6995C68.4434 26.8919 68.1851 27 67.9157 27ZM72.9843 22.5261H55.0157C54.7464 22.5261 54.488 22.418 54.2975 22.2256C54.107 22.0331 54 21.7721 54 21.5C54 21.2279 54.107 20.9669 54.2975 20.7744C54.488 20.582 54.7464 20.4739 55.0157 20.4739H72.9843C73.2536 20.4739 73.512 20.582 73.7025 20.7744C73.893 20.9669 74 21.2279 74 21.5C74 21.7721 73.893 22.0331 73.7025 22.2256C73.512 22.418 73.2536 22.5261 72.9843 22.5261ZM67.9157 18.0522H60.0843C59.8149 18.0522 59.5566 17.9441 59.3661 17.7517C59.1756 17.5593 59.0686 17.2983 59.0686 17.0261C59.0686 16.754 59.1756 16.493 59.3661 16.3005C59.5566 16.1081 59.8149 16 60.0843 16H67.9157C68.1851 16 68.4434 16.1081 68.6339 16.3005C68.8244 16.493 68.9314 16.754 68.9314 17.0261C68.9314 17.2983 68.8244 17.5593 68.6339 17.7517C68.4434 17.9441 68.1851 18.0522 67.9157 18.0522Z" fill="#DBD1C8"/>
</svg>
