<svg width="22" height="13" viewBox="0 0 22 13" fill="none" xmlns="http://www.w3.org/2000/svg">
<path d="M20.75 7.25H1.25C1.05109 7.25 0.860322 7.17098 0.71967 7.03033C0.579018 6.88968 0.5 6.69891 0.5 6.5C0.5 6.30109 0.579018 6.11032 0.71967 5.96967C0.860322 5.82902 1.05109 5.75 1.25 5.75H20.75C20.9489 5.75 21.1397 5.82902 21.2803 5.96967C21.421 6.11032 21.5 6.30109 21.5 6.5C21.5 6.69891 21.421 6.88968 21.2803 7.03033C21.1397 7.17098 20.9489 7.25 20.75 7.25ZM21.5 11.75C21.5 11.5511 21.421 11.3603 21.2803 11.2197C21.1397 11.079 20.9489 11 20.75 11H1.25C1.05109 11 0.860322 11.079 0.71967 11.2197C0.579018 11.3603 0.5 11.5511 0.5 11.75C0.5 11.9489 0.579018 12.1397 0.71967 12.2803C0.860322 12.421 1.05109 12.5 1.25 12.5H20.75C20.9489 12.5 21.1397 12.421 21.2803 12.2803C21.421 12.1397 21.5 11.9489 21.5 11.75ZM21.5 1.25C21.5 1.05109 21.421 0.860322 21.2803 0.71967C21.1397 0.579018 20.9489 0.5 20.75 0.5H1.25C1.05109 0.5 0.860322 0.579018 0.71967 0.71967C0.579018 0.860322 0.5 1.05109 0.5 1.25C0.5 1.44891 0.579018 1.63968 0.71967 1.78033C0.860322 1.92098 1.05109 2 1.25 2H20.75C20.9489 2 21.1397 1.92098 21.2803 1.78033C21.421 1.63968 21.5 1.44891 21.5 1.25Z" fill="white"/>
</svg>
