<svg width="24" height="10" viewBox="0 0 24 10" fill="none" xmlns="http://www.w3.org/2000/svg">
<path d="M23.4461 5.48924H0.553831C0.281523 5.48924 0.0615234 5.26924 0.0615234 4.99693C0.0615234 4.72463 0.281523 4.50463 0.553831 4.50463H22.2569L19.2692 1.51693C19.0769 1.32463 19.0769 1.01232 19.2692 0.820012C19.4615 0.627704 19.7738 0.627704 19.9661 0.820012L23.7954 4.64924C23.9369 4.79078 23.9784 5.00155 23.9015 5.18617C23.8246 5.36924 23.6446 5.48924 23.4461 5.48924Z" fill="white"/>
<path d="M19.6125 9.32303C19.4864 9.32303 19.3602 9.27534 19.2648 9.17842C19.0725 8.98611 19.0725 8.6738 19.2648 8.4815L23.0987 4.64765C23.291 4.45534 23.6033 4.45534 23.7956 4.64765C23.9879 4.83996 23.9879 5.15226 23.7956 5.34457L19.9618 9.17842C19.8648 9.27534 19.7387 9.32303 19.6125 9.32303Z" fill="white"/>
</svg>
