<svg width="27" height="10" viewBox="0 0 27 10" fill="none" xmlns="http://www.w3.org/2000/svg">
<path d="M26.0823 5.41655H0.916206C0.616851 5.41655 0.375 5.1747 0.375 4.87535C0.375 4.57599 0.616851 4.33414 0.916206 4.33414H24.7749L21.4905 1.0497C21.2791 0.838292 21.2791 0.494965 21.4905 0.283556C21.7019 0.0721479 22.0452 0.0721479 22.2566 0.283556L26.4662 4.49312C26.6218 4.64872 26.6674 4.88042 26.5829 5.08337C26.4983 5.28463 26.3004 5.41655 26.0823 5.41655Z" fill="#1D120C"/>
<path d="M21.8679 9.6323C21.7292 9.6323 21.5906 9.57987 21.4857 9.47332C21.2743 9.26192 21.2743 8.91859 21.4857 8.70718L25.7003 4.49254C25.9118 4.28113 26.2551 4.28113 26.4665 4.49254C26.6779 4.70395 26.6779 5.04728 26.4665 5.25869L22.2518 9.47332C22.1453 9.57987 22.0066 9.6323 21.8679 9.6323Z" fill="#1D120C"/>
</svg>
