<svg width="22" height="22" viewBox="0 0 22 22" fill="none" xmlns="http://www.w3.org/2000/svg">
<path d="M15.125 11C15.1251 11.0903 15.1074 11.1797 15.0728 11.2631C15.0382 11.3465 14.9875 11.4223 14.9236 11.486L8.04861 18.361C7.77996 18.6297 7.34495 18.6297 7.07648 18.361C6.80801 18.0924 6.80784 17.6574 7.07648 17.3889L13.4654 11L7.07648 4.61102C6.80784 4.34238 6.80784 3.90736 7.07648 3.63889C7.34512 3.37043 7.78014 3.37025 8.0486 3.63889L14.9236 10.5139C14.9875 10.5777 15.0382 10.6534 15.0728 10.7368C15.1074 10.8202 15.1251 10.9097 15.125 11Z" fill="#4E4439"/>
</svg>
