<svg width="15" height="15" viewBox="0 0 15 15" fill="none" xmlns="http://www.w3.org/2000/svg">
<g clip-path="url(#clip0_72_2940)">
<path d="M14.4866 4.05929L10.6652 0.088418C10.6382 0.0604632 10.606 0.0382249 10.5702 0.0230328C10.5345 0.00784079 10.4961 7.03927e-06 10.4573 0L4.7617 0C4.12429 0 3.6057 0.518379 3.6057 1.15553V5.19231H1.29749C0.820596 5.19231 0.432617 5.58018 0.432617 6.05695V10.3854C0.432617 10.8621 0.820596 11.25 1.29749 11.25H3.6057V13.8465C3.6057 14.4825 4.12429 15 4.7617 15H13.4113C14.0487 15 14.5672 14.4828 14.5672 13.8471V4.25933C14.5672 4.18473 14.5383 4.11304 14.4866 4.05929ZM10.5288 0.77874L13.6659 4.03846H10.5288V0.77874ZM1.29749 10.6731C1.1387 10.6731 1.00956 10.544 1.00956 10.3854V6.05695C1.00956 5.89831 1.13873 5.76923 1.29749 5.76923H9.087C9.24579 5.76923 9.37493 5.89831 9.37493 6.05695V10.3854C9.37493 10.544 9.24576 10.6731 9.087 10.6731H1.29749ZM13.9903 13.8471C13.9903 14.1647 13.7305 14.4231 13.4112 14.4231H4.7617C4.44239 14.4231 4.18262 14.1645 4.18262 13.8465V11.25H9.087C9.5639 11.25 9.95187 10.8621 9.95187 10.3854V6.05695C9.95187 5.58018 9.5639 5.19231 9.087 5.19231H4.18262V1.15553C4.18262 0.836455 4.44239 0.576914 4.7617 0.576914H9.95185V4.32691C9.95185 4.48623 10.081 4.61537 10.2403 4.61537H13.9903V13.8471Z" fill="#1D120C"/>
<path d="M3.8814 7.32074C3.78563 7.19623 3.66674 7.11537 3.52477 7.07819C3.43236 7.05341 3.23405 7.04102 2.9298 7.04102H2.12695V9.51886H2.62726V8.58417H2.95348C3.17997 8.58417 3.35294 8.57233 3.47238 8.54866C3.56027 8.5295 3.64676 8.49036 3.73184 8.43118C3.81691 8.37203 3.88705 8.29062 3.94228 8.18696C3.9975 8.08331 4.0251 7.9554 4.0251 7.80329C4.02507 7.60609 3.97717 7.44525 3.8814 7.32074ZM3.45293 8.00274C3.4152 8.05797 3.36308 8.09852 3.29657 8.12444C3.23007 8.15037 3.09826 8.16332 2.90106 8.16332H2.62726V7.4602H2.86895C3.04925 7.4602 3.16925 7.46582 3.22896 7.4771C3.31008 7.49175 3.37714 7.52837 3.43008 7.58696C3.48305 7.64556 3.50953 7.71994 3.50953 7.81006C3.50956 7.8833 3.49066 7.94752 3.45293 8.00274ZM6.43022 7.71795C6.37614 7.55963 6.29725 7.42583 6.19359 7.31652C6.08994 7.20722 5.9654 7.13116 5.82006 7.08833C5.71189 7.05678 5.55469 7.04102 5.3485 7.04102H4.43408V9.51886H5.37554C5.56034 9.51886 5.70794 9.5014 5.81836 9.46645C5.96599 9.41913 6.08317 9.35321 6.16992 9.26869C6.28485 9.15713 6.3733 9.01123 6.43529 8.83094C6.48601 8.68331 6.51135 8.50753 6.51135 8.30359C6.51135 8.07147 6.48431 7.87627 6.43022 7.71795ZM5.94343 8.73546C5.90962 8.84647 5.86597 8.92618 5.81244 8.97461C5.75892 9.02307 5.69159 9.05743 5.61047 9.0777C5.54851 9.0935 5.44764 9.10138 5.30792 9.10138H4.93438V7.4602H5.15918C5.36312 7.4602 5.50005 7.46808 5.56989 7.48387C5.66341 7.50414 5.74061 7.54302 5.80146 7.6005C5.8623 7.65798 5.90962 7.73796 5.94343 7.8405C5.97724 7.94304 5.99414 8.09008 5.99414 8.28165C5.99414 8.47319 5.97724 8.62445 5.94343 8.73546ZM8.63763 7.4602V7.04102H6.93896V9.51886H7.43927V8.46587H8.47368V8.04669H7.43927V7.4602H8.63763Z" fill="#1D120C"/>
</g>
<defs>
<clipPath id="clip0_72_2940">
<rect width="15" height="15" fill="white"/>
</clipPath>
</defs>
</svg>
