<svg width="22" height="22" viewBox="0 0 22 22" fill="none" xmlns="http://www.w3.org/2000/svg">
<path d="M11.2435 4.14984C11.1955 4.14981 11.1478 4.15926 11.1034 4.17764C11.059 4.19603 11.0186 4.22299 10.9846 4.25698C10.9507 4.29098 10.9237 4.33134 10.9053 4.37576C10.8869 4.42018 10.8775 4.46779 10.8775 4.51587L10.8775 10.8743L4.5178 10.8756C4.42072 10.8756 4.32762 10.9141 4.25897 10.9828C4.19033 11.0514 4.15176 11.1445 4.15176 11.2416C4.15176 11.3387 4.19033 11.4318 4.25897 11.5004C4.32762 11.5691 4.42072 11.6076 4.5178 11.6076L10.8775 11.6063L10.8788 17.966C10.8788 18.0631 10.9174 18.1562 10.986 18.2249C11.0546 18.2935 11.1477 18.3321 11.2448 18.3321C11.3419 18.3321 11.435 18.2935 11.5036 18.2249C11.5723 18.1562 11.6109 18.0631 11.6109 17.966L11.6096 11.6063L17.9693 11.6051C18.0611 11.5979 18.1469 11.5564 18.2095 11.4888C18.2721 11.4212 18.3069 11.3324 18.3069 11.2403C18.3069 11.1482 18.2721 11.0594 18.2095 10.9918C18.1469 10.9242 18.0611 10.8827 17.9693 10.8756L11.6096 10.8743L11.6083 4.51458C11.608 4.41793 11.5695 4.32532 11.5011 4.25698C11.4328 4.18864 11.3402 4.15012 11.2435 4.14984Z" fill="#1D120C"/>
</svg>
