<svg width="22" height="22" viewBox="0 0 22 22" fill="none" xmlns="http://www.w3.org/2000/svg">
<path d="M6.87496 11C6.87486 10.9097 6.89261 10.8203 6.92718 10.7369C6.96175 10.6535 7.01246 10.5777 7.07639 10.514L13.9514 3.63898C14.22 3.37034 14.6551 3.37034 14.9235 3.63898C15.192 3.90762 15.1922 4.34264 14.9235 4.61111L8.53458 11L14.9235 17.389C15.1922 17.6576 15.1922 18.0926 14.9235 18.3611C14.6549 18.6296 14.2199 18.6297 13.9514 18.3611L7.07639 11.4861C7.01246 11.4223 6.96175 11.3466 6.92718 11.2632C6.89261 11.1798 6.87486 11.0903 6.87496 11Z" fill="#4E4439"/>
</svg>
