<svg width="27" height="10" viewBox="0 0 27 10" fill="none" xmlns="http://www.w3.org/2000/svg">
<path d="M0.917733 4.58344L26.0838 4.58345C26.3831 4.58345 26.625 4.8253 26.625 5.12465C26.625 5.42401 26.3831 5.66586 26.0838 5.66586L2.22508 5.66586L5.50952 8.9503C5.72093 9.16171 5.72093 9.50503 5.50952 9.71644C5.29811 9.92785 4.95479 9.92785 4.74338 9.71644L0.533816 5.50688C0.378218 5.35128 0.332554 5.11958 0.417117 4.91662C0.501681 4.71536 0.699559 4.58344 0.917733 4.58344Z" fill="#1D120C"/>
<path d="M5.13207 0.367696C5.27075 0.367696 5.40944 0.420126 5.5143 0.526676C5.7257 0.738084 5.7257 1.08141 5.5143 1.29282L1.29966 5.50746C1.08825 5.71887 0.744921 5.71887 0.533513 5.50746C0.322104 5.29605 0.322104 4.95272 0.533513 4.74131L4.74815 0.526676C4.8547 0.420126 4.99338 0.367696 5.13207 0.367696Z" fill="#1D120C"/>
</svg>
