<svg width="22" height="21" viewBox="0 0 22 21" fill="none" xmlns="http://www.w3.org/2000/svg">
<g clip-path="url(#clip0_72_13352)">
<path d="M19 0H3C2.20435 0 1.44129 0.301704 0.87868 0.83874C0.31607 1.37578 0 2.10415 0 2.86364L0 18.1364C0 18.8958 0.31607 19.6242 0.87868 20.1613C1.44129 20.6983 2.20435 21 3 21H19C19.7956 21 20.5587 20.6983 21.1213 20.1613C21.6839 19.6242 22 18.8958 22 18.1364V2.86364C22 2.10415 21.6839 1.37578 21.1213 0.83874C20.5587 0.301704 19.7956 0 19 0ZM12.0612 13.4233C11.2075 13.4233 10.4062 12.983 10.1313 12.4831C10.1313 12.4831 9.6725 14.2203 9.57625 14.5556C9.23375 15.7393 8.22875 16.9253 8.15 17.0219C8.13771 17.0376 8.12088 17.0495 8.10159 17.0561C8.0823 17.0628 8.06139 17.0639 8.04145 17.0593C8.02151 17.0547 8.00341 17.0447 7.98938 17.0304C7.97535 17.0161 7.966 16.9983 7.9625 16.979C7.94125 16.8286 7.685 15.3336 7.98625 14.1153L9 10.006C8.82897 9.62972 8.74375 9.22299 8.75 8.81284C8.75 7.69602 9.42875 6.86199 10.2738 6.86199C10.9913 6.86199 11.3387 7.37625 11.3387 7.99432C11.3387 8.68278 10.8787 9.71369 10.6412 10.6694C10.4425 11.4689 11.0612 12.1215 11.8912 12.1215C13.3912 12.1215 14.3912 10.2864 14.3912 8.11244C14.3912 6.46108 13.2262 5.22375 11.105 5.22375C8.71 5.22375 7.21625 6.92881 7.21625 8.82955C7.21625 9.48699 7.42 9.94994 7.7375 10.3079C7.88375 10.4726 7.905 10.5394 7.85125 10.7279C7.81375 10.8675 7.72625 11.2052 7.69 11.3328C7.68355 11.3737 7.6669 11.4125 7.64144 11.4459C7.61599 11.4794 7.58249 11.5065 7.54376 11.525C7.50503 11.5434 7.46221 11.5528 7.41892 11.5521C7.37563 11.5515 7.33312 11.541 7.295 11.5214C6.19125 11.0966 5.6775 9.94278 5.6775 8.64699C5.6775 6.50523 7.57 3.9375 11.3225 3.9375C14.3375 3.9375 16.3225 6.0196 16.3225 8.25562C16.3225 11.2159 14.6 13.4233 12.0612 13.4233Z" fill="#FBFBF9"/>
</g>
<defs>
<clipPath id="clip0_72_13352">
<rect width="22" height="21" rx="6" fill="white"/>
</clipPath>
</defs>
</svg>
