<svg width="21" height="21" viewBox="0 0 21 21" fill="none" xmlns="http://www.w3.org/2000/svg">
<g clip-path="url(#clip0_72_13355)">
<path d="M18.1364 0H2.86364C2.10415 0 1.37578 0.301704 0.83874 0.83874C0.301704 1.37578 0 2.10415 0 2.86364L0 18.1364C0 18.8958 0.301704 19.6242 0.83874 20.1613C1.37578 20.6983 2.10415 21 2.86364 21H18.1364C18.8958 21 19.6242 20.6983 20.1613 20.1613C20.6983 19.6242 21 18.8958 21 18.1364V2.86364C21 2.10415 20.6983 1.37578 20.1613 0.83874C19.6242 0.301704 18.8958 0 18.1364 0ZM7.15909 16.6186C7.15925 16.6769 7.14791 16.7346 7.12574 16.7884C7.10356 16.8422 7.07098 16.8912 7.02986 16.9324C6.98874 16.9737 6.93988 17.0064 6.8861 17.0287C6.83231 17.051 6.77465 17.0625 6.71642 17.0625H4.83C4.77167 17.0627 4.71388 17.0513 4.65995 17.029C4.60603 17.0068 4.55704 16.9741 4.51579 16.9328C4.47454 16.8916 4.44185 16.8426 4.4196 16.7887C4.39735 16.7348 4.38598 16.677 4.38614 16.6186V8.71023C4.38614 8.59251 4.4329 8.47961 4.51614 8.39637C4.59938 8.31313 4.71228 8.26636 4.83 8.26636H6.71642C6.83393 8.26668 6.94653 8.31358 7.02951 8.39679C7.11249 8.48 7.15909 8.59271 7.15909 8.71023V16.6186ZM5.77261 7.51705C5.41863 7.51705 5.0726 7.41208 4.77827 7.21541C4.48394 7.01875 4.25454 6.73923 4.11908 6.41219C3.98362 6.08515 3.94817 5.72529 4.01723 5.37811C4.08629 5.03092 4.25675 4.71202 4.50705 4.46171C4.75736 4.21141 5.07626 4.04095 5.42345 3.97189C5.77063 3.90283 6.13049 3.93827 6.45753 4.07374C6.78457 4.2092 7.06409 4.4386 7.26076 4.73293C7.45742 5.02725 7.56239 5.37329 7.56239 5.72727C7.56239 6.20195 7.37382 6.65719 7.03817 6.99283C6.70253 7.32848 6.24729 7.51705 5.77261 7.51705ZM17.0195 16.6497C17.0197 16.7033 17.0093 16.7564 16.9888 16.806C16.9684 16.8556 16.9383 16.9006 16.9004 16.9386C16.8625 16.9765 16.8174 17.0065 16.7678 17.027C16.7182 17.0474 16.6651 17.0579 16.6115 17.0577H14.5831C14.5294 17.0579 14.4763 17.0474 14.4267 17.027C14.3771 17.0065 14.3321 16.9765 14.2942 16.9386C14.2562 16.9006 14.2262 16.8556 14.2057 16.806C14.1853 16.7564 14.1748 16.7033 14.175 16.6497V12.9448C14.175 12.3912 14.3373 10.5203 12.7277 10.5203C11.4808 10.5203 11.2266 11.8006 11.1765 12.3757V16.6544C11.1765 16.7616 11.1344 16.8645 11.0591 16.9409C10.9839 17.0173 10.8816 17.0609 10.7744 17.0625H8.81523C8.76169 17.0625 8.70869 17.0519 8.65925 17.0314C8.60981 17.0109 8.5649 16.9808 8.5271 16.9429C8.4893 16.905 8.45936 16.86 8.43898 16.8105C8.4186 16.761 8.4082 16.708 8.40835 16.6544V8.67562C8.4082 8.62209 8.4186 8.56906 8.43898 8.51955C8.45936 8.47005 8.4893 8.42506 8.5271 8.38715C8.5649 8.34924 8.60981 8.31916 8.65925 8.29864C8.70869 8.27812 8.76169 8.26756 8.81523 8.26756H10.7744C10.8827 8.26756 10.9865 8.31055 11.063 8.38708C11.1395 8.4636 11.1825 8.5674 11.1825 8.67562V9.36528C11.6455 8.66966 12.3315 8.13511 13.7956 8.13511C17.0386 8.13511 17.0172 11.1634 17.0172 12.8267L17.0195 16.6497Z" fill="#FBFBF9"/>
</g>
<defs>
<clipPath id="clip0_72_13355">
<rect width="21" height="21" rx="6" fill="white"/>
</clipPath>
</defs>
</svg>
