<svg width="22" height="21" viewBox="0 0 22 21" fill="none" xmlns="http://www.w3.org/2000/svg">
<g clip-path="url(#clip0_72_13358)">
<path d="M16.5 0H5.5C2.47527 0 0 2.36173 0 5.25V15.75C0 18.6372 2.47527 21 5.5 21H16.5C19.5247 21 22 18.6372 22 15.75V5.25C22 2.36173 19.5247 0 16.5 0ZM11 14.8748C8.46834 14.8748 6.41658 12.9155 6.41658 10.5C6.41658 8.08341 8.46834 6.12491 11 6.12491C13.5305 6.12491 15.5834 8.08341 15.5834 10.5C15.5834 12.9155 13.5305 14.8748 11 14.8748ZM16.9584 6.12491C16.1983 6.12491 15.5834 5.53716 15.5834 4.81241C15.5834 4.08767 16.1983 3.49991 16.9584 3.49991C17.7185 3.49991 18.3334 4.08767 18.3334 4.81241C18.3334 5.53716 17.7185 6.12491 16.9584 6.12491Z" fill="#FBFBF9"/>
</g>
<defs>
<clipPath id="clip0_72_13358">
<rect width="22" height="21" rx="6" fill="white"/>
</clipPath>
</defs>
</svg>
