<svg width="22" height="22" viewBox="0 0 22 22" fill="none" xmlns="http://www.w3.org/2000/svg">
<path d="M18.8581 17.1839L14.9852 13.3731C15.9994 12.2712 16.6225 10.814 16.6225 9.21052C16.6221 5.78032 13.7966 3 10.3111 3C6.82549 3 4.00009 5.78032 4.00009 9.21052C4.00009 12.6407 6.82549 15.421 10.3111 15.421C11.8171 15.421 13.1984 14.9001 14.2833 14.0341L18.1712 17.86C18.3606 18.0467 18.6682 18.0467 18.8576 17.86C18.9027 17.816 18.9385 17.7635 18.963 17.7054C18.9874 17.6474 19.0001 17.5851 19.0001 17.5221C19.0001 17.4591 18.9876 17.3968 18.9632 17.3387C18.9388 17.2806 18.9031 17.228 18.8581 17.1839ZM10.3111 14.4655C7.36189 14.4655 4.97112 12.1128 4.97112 9.21052C4.97112 6.30826 7.36189 3.95552 10.3111 3.95552C13.2603 3.95552 15.651 6.30826 15.651 9.21052C15.651 12.1128 13.2603 14.4655 10.3111 14.4655Z" fill="#4E4439"/>
</svg>
