<svg width="16" height="16" viewBox="0 0 16 16" fill="none" xmlns="http://www.w3.org/2000/svg">
<path d="M0.557232 4.83574C0.630409 4.83574 0.702869 4.82132 0.770476 4.79332C0.838082 4.76532 0.899511 4.72427 0.951255 4.67253C1.003 4.62078 1.04404 4.55935 1.07205 4.49175C1.10005 4.42414 1.11446 4.35168 1.11446 4.2785V1.90261L4.70341 5.49082C4.75511 5.54262 4.81652 5.5837 4.88414 5.6117C4.95175 5.6397 5.02423 5.65407 5.09741 5.65398C5.24006 5.65398 5.38272 5.59959 5.49149 5.49075C5.54324 5.43901 5.58429 5.37758 5.61229 5.30997C5.6403 5.24237 5.65471 5.16991 5.6547 5.09673C5.65469 5.02355 5.64027 4.95109 5.61225 4.88349C5.58423 4.81589 5.54317 4.75447 5.49141 4.70274L1.90232 1.11446H4.27873C4.42651 1.11446 4.56825 1.05576 4.67275 0.951255C4.77725 0.846754 4.83596 0.70502 4.83596 0.557232C4.83596 0.409445 4.77725 0.267711 4.67275 0.16321C4.56825 0.0587082 4.42651 2.2022e-09 4.27873 0H0.557232C0.409445 0 0.267711 0.0587082 0.16321 0.16321C0.0587082 0.267711 0 0.409445 0 0.557232L0 4.27858C1.97032e-05 4.42635 0.0587366 4.56807 0.163236 4.67255C0.267735 4.77704 0.409458 4.83574 0.557232 4.83574ZM15.4428 11.164C15.295 11.164 15.1532 11.2227 15.0487 11.3272C14.9442 11.4317 14.8855 11.5734 14.8855 11.7212V14.0972L11.1861 10.3977C11.0815 10.294 10.94 10.2359 10.7926 10.2362C10.6452 10.2365 10.504 10.2952 10.3998 10.3994C10.2956 10.5036 10.2369 10.6448 10.2366 10.7922C10.2362 10.9396 10.2943 11.0811 10.398 11.1857L14.0974 14.8851H11.7216C11.5738 14.8851 11.432 14.9438 11.3275 15.0483C11.223 15.1528 11.1643 15.2945 11.1643 15.4423C11.1643 15.5901 11.223 15.7318 11.3275 15.8363C11.432 15.9408 11.5738 15.9996 11.7216 15.9996H15.4428C15.5906 15.9996 15.7324 15.9408 15.8369 15.8363C15.9414 15.7318 16.0001 15.5901 16.0001 15.4423V11.7212C16 11.5734 15.9413 11.4317 15.8368 11.3272C15.7323 11.2227 15.5906 11.164 15.4428 11.164ZM4.81389 10.3977L1.11484 14.0971V11.7212C1.11484 11.4135 0.865419 11.164 0.557604 11.164C0.249789 11.164 0.000371488 11.4135 0.000371488 11.7212V15.4425C0.000371488 15.5903 0.0590797 15.732 0.163581 15.8365C0.268082 15.941 0.409817 15.9997 0.557604 15.9997H4.27873C4.42651 15.9997 4.56825 15.941 4.67275 15.8365C4.77725 15.732 4.83596 15.5903 4.83596 15.4425C4.83596 15.2947 4.77725 15.1529 4.67275 15.0484C4.56825 14.9439 4.42651 14.8852 4.27873 14.8852H1.90284L5.60197 11.1857C5.65408 11.1341 5.69548 11.0726 5.72378 11.0049C5.75208 10.9372 5.76673 10.8646 5.76689 10.7912C5.76704 10.7178 5.75271 10.6451 5.72469 10.5773C5.69668 10.5095 5.65555 10.4479 5.60366 10.396C5.55177 10.3441 5.49014 10.303 5.42231 10.2749C5.35448 10.2469 5.28179 10.2326 5.20841 10.2328C5.13503 10.2329 5.0624 10.2476 4.9947 10.2759C4.927 10.3042 4.86555 10.3456 4.81389 10.3977ZM15.4428 0H11.7215C11.5737 0 11.432 0.0587082 11.3275 0.16321C11.223 0.267711 11.1643 0.409445 11.1643 0.557232C11.1643 0.70502 11.223 0.846754 11.3275 0.951255C11.432 1.05576 11.5737 1.11446 11.7215 1.11446H14.0975L10.509 4.70312C10.4311 4.78105 10.378 4.88034 10.3565 4.98844C10.335 5.09653 10.3461 5.20857 10.3883 5.31039C10.4305 5.41221 10.5019 5.49923 10.5935 5.56045C10.6852 5.62168 10.7929 5.65435 10.9031 5.65435C10.9763 5.65443 11.0488 5.64005 11.1164 5.61203C11.184 5.58402 11.2455 5.54293 11.2972 5.49112L14.8856 1.90247V4.2785C14.8856 4.35168 14.9 4.42414 14.928 4.49175C14.956 4.55935 14.9971 4.62078 15.0488 4.67253C15.1006 4.72427 15.162 4.76532 15.2296 4.79332C15.2972 4.82132 15.3697 4.83574 15.4428 4.83574C15.516 4.83574 15.5885 4.82132 15.6561 4.79332C15.7237 4.76532 15.7851 4.72427 15.8369 4.67253C15.8886 4.62078 15.9297 4.55935 15.9577 4.49175C15.9857 4.42414 16.0001 4.35168 16.0001 4.2785V0.557232C16.0001 0.409438 15.9413 0.267704 15.8368 0.163205C15.7323 0.0587059 15.5906 -1.31337e-09 15.4428 0Z" fill="#1D120C"/>
</svg>
