<svg width="22" height="22" viewBox="0 0 22 22" fill="none" xmlns="http://www.w3.org/2000/svg">
<path d="M18.8485 17.1295L14.7175 13.0646C15.7993 11.8893 16.4639 10.335 16.4639 8.62455C16.4634 4.96568 13.4497 2 9.73171 2C6.01376 2 3 4.96568 3 8.62455C3 12.2834 6.01376 15.2491 9.73171 15.2491C11.3381 15.2491 12.8115 14.6935 13.9688 13.7698L18.1158 17.8507C18.3179 18.0498 18.646 18.0498 18.848 17.8507C18.8961 17.8038 18.9343 17.7477 18.9604 17.6858C18.9865 17.6239 19 17.5574 19 17.4902C19 17.423 18.9867 17.3565 18.9606 17.2946C18.9346 17.2327 18.8965 17.1765 18.8485 17.1295ZM9.73171 14.2299C6.58592 14.2299 4.03577 11.7203 4.03577 8.62455C4.03577 5.52881 6.58592 3.01923 9.73171 3.01923C12.8775 3.01923 15.4277 5.52881 15.4277 8.62455C15.4277 11.7203 12.8775 14.2299 9.73171 14.2299Z" fill="white"/>
<g clip-path="url(#clip0_72_11834)">
<path d="M11.8047 8.30469H9.69531V6.19531C9.69531 6.08744 9.60787 6 9.5 6C9.39213 6 9.30469 6.08744 9.30469 6.19531V8.30469H7.19531C7.08744 8.30469 7 8.39213 7 8.5C7 8.60787 7.08744 8.69531 7.19531 8.69531H9.30469V10.8047C9.30469 10.9126 9.39213 11 9.5 11C9.60787 11 9.69531 10.9126 9.69531 10.8047V8.69531H11.8047C11.9126 8.69531 12 8.60787 12 8.5C12 8.39213 11.9126 8.30469 11.8047 8.30469Z" fill="white"/>
</g>
<defs>
<clipPath id="clip0_72_11834">
<rect width="5" height="5" fill="white" transform="translate(7 6)"/>
</clipPath>
</defs>
</svg>
